<svg xmlns="http://www.w3.org/2000/svg" width="512" height="512" viewBox="0 0 135.467 135.467"><g transform="translate(-22.869 -174.74)"><path d="M-3.122-3.707h142.067v143.518H-3.122z" style="fill:#171717;fill-opacity:1;stroke:#fff;stroke-width:.827675;stroke-linejoin:round;stroke-dasharray:none;paint-order:markers stroke fill" transform="translate(22.869 174.74)"/><ellipse cx="89.578" cy="242.469" rx="43.458" ry="43.463" style="display:inline;opacity:1;fill:#363636;fill-opacity:.645098;stroke:none;stroke-width:9.48581;stroke-linecap:butt;stroke-linejoin:miter;stroke-miterlimit:9.5;stroke-dasharray:none;stroke-opacity:1"/><ellipse cx="89.578" cy="242.469" rx="15.076" ry="15.078" style="display:inline;opacity:1;fill:#0d0d0d;fill-opacity:1;stroke:none;stroke-width:3.06657;stroke-linecap:butt;stroke-linejoin:miter;stroke-miterlimit:9.5;stroke-dasharray:none;stroke-opacity:1"/><ellipse cx="89.578" cy="242.469" rx="2.533" ry="2.534" style="display:inline;opacity:1;fill:#363636;fill-opacity:.645098;stroke:none;stroke-width:9.48581;stroke-linecap:butt;stroke-linejoin:miter;stroke-miterlimit:9.5;stroke-dasharray:none;stroke-opacity:1"/><path d="M119.903 241.948a30.325 30.328 0 0 1-17.46 27.464" style="display:inline;opacity:1;fill:none;fill-opacity:1;stroke:#a0a0a0;stroke-width:17.307;stroke-linecap:butt;stroke-linejoin:miter;stroke-miterlimit:12.4;stroke-dasharray:none;stroke-opacity:.0901961"/><path d="M-59.058-242.37a30.325 30.328 0 0 1-17.46 27.465" style="display:inline;opacity:1;fill:none;fill-opacity:1;stroke:#a0a0a0;stroke-width:17.307;stroke-linecap:butt;stroke-linejoin:miter;stroke-miterlimit:12.4;stroke-dasharray:none;stroke-opacity:.0901961" transform="scale(-1)"/><path d="M133.01 241.7a43.458 43.463 0 0 1-43.432 42.915 43.458 43.463 0 0 1-43.43-42.689 43.458 43.463 0 0 0-.028.55 43.458 43.463 0 0 0 43.458 43.463 43.458 43.463 0 0 0 43.459-43.463 43.458 43.463 0 0 0-.028-.776" style="display:inline;opacity:1;fill:#000;fill-opacity:.0912281;stroke:none;stroke-width:9.48581;stroke-linecap:butt;stroke-linejoin:miter;stroke-miterlimit:9.5;stroke-dasharray:none;stroke-opacity:1"/></g><text xml:space="preserve" x="80.217" y="104.196" style="font-style:normal;font-weight:400;font-size:28.6827px;line-height:1.25;font-family:sans-serif;letter-spacing:0;word-spacing:0;fill:#000;fill-opacity:1;stroke:none;stroke-width:.336125"><tspan x="80.217" y="104.196" style="font-style:normal;font-variant:normal;font-weight:700;font-stretch:normal;font-size:28.6827px;font-family:&quot;Ubuntu Mono&quot;;-inkscape-font-specification:&quot;Ubuntu Mono Bold&quot;;fill:#f2f2f2;stroke-width:.336125">🞫?</tspan></text></svg>