<svg xmlns="http://www.w3.org/2000/svg" width="110" height="110" viewBox="0 0 29.104 29.104"><g transform="translate(-22.869 -174.74)"><ellipse cx="37.418" cy="189.29" rx="14.549" ry="14.551" style="display:inline;fill:#131313;fill-opacity:1;stroke:none;stroke-width:3.17572665;stroke-linecap:butt;stroke-linejoin:miter;stroke-miterlimit:9.5;stroke-dasharray:none;stroke-opacity:1;opacity:1"/><ellipse cx="37.418" cy="189.29" rx="5.047" ry="5.048" style="display:inline;fill:#070707;fill-opacity:1;stroke:none;stroke-width:1.02664733;stroke-linecap:butt;stroke-linejoin:miter;stroke-miterlimit:9.5;stroke-dasharray:none;stroke-opacity:1;opacity:1"/><circle cx="37.418" cy="189.29" r=".848" style="display:inline;fill:#484848;fill-opacity:.29019609;stroke:none;stroke-width:3.17572665;stroke-linecap:butt;stroke-linejoin:miter;stroke-miterlimit:9.5;stroke-dasharray:none;stroke-opacity:1;opacity:1"/><path d="M47.57 189.116a10.152 10.153 0 0 1-5.845 9.194" style="display:inline;opacity:1;fill:none;fill-opacity:1;stroke:#4c4c4c;stroke-width:5.79414845;stroke-linecap:butt;stroke-linejoin:miter;stroke-miterlimit:12.39999962;stroke-dasharray:none;stroke-opacity:.09019608"/><path d="M-27.2-189.257a10.152 10.153 0 0 1-5.846 9.195" style="display:inline;fill:none;fill-opacity:1;stroke:#4c4c4c;stroke-width:5.79414845;stroke-linecap:butt;stroke-linejoin:miter;stroke-miterlimit:12.39999962;stroke-dasharray:none;stroke-opacity:.09019608;opacity:1" transform="scale(-1)"/><path d="M51.958 189.033a14.55 14.55 0 0 1-14.54 14.367 14.55 14.55 0 0 1-14.54-14.291l-.01.184a14.55 14.55 0 0 0 14.55 14.55 14.55 14.55 0 0 0 14.55-14.55z" style="display:inline;fill:#000;fill-opacity:.09122805;stroke:none;stroke-width:3.17572665;stroke-linecap:butt;stroke-linejoin:miter;stroke-miterlimit:9.5;stroke-dasharray:none;stroke-opacity:1;opacity:1"/></g></svg>