<svg xmlns="http://www.w3.org/2000/svg" width="11" height="13" viewBox="0 0 2.91 3.44"><path d="M53.75 161.94c-.132 0-.237.099-.237.222v1.381c0 .123.105.222.236.222h2.44c.13 0 .235-.099.235-.222v-1.381c0-.123-.105-.222-.236-.222zm1.219.429a.273.257 0 0 1 .273.257.273.257 0 0 1-.135.221v.341c0 .084-.062.15-.138.15s-.14-.066-.14-.15v-.34a.273.257 0 0 1-.134-.222.273.257 0 0 1 .274-.257" style="fill:#fffffc;fill-opacity:1;stroke:none;stroke-width:.03763771" transform="translate(-53.513 -160.325)"/><path d="M53.93 162.135v-.632a1.04.978 0 0 1 1.039-.978 1.04.978 0 0 1 1.039.978v.632" style="fill:none;fill-opacity:1;stroke:#f4ffff;stroke-width:.39987808;stroke-miterlimit:4;stroke-dasharray:none;stroke-opacity:1" transform="translate(-53.513 -160.325)"/></svg>