<svg xmlns="http://www.w3.org/2000/svg" width="16" height="12" viewBox="0 0 4.233 3.175"><path d="M43.767 175.85c-.603 0-.532.46-.532.46v2.29a.42.42 0 0 0 .413.426h.4v-2.134h3.418v-.266a.42.42 0 0 0-.414-.426h-1.856l-.49-.341s-.337-.008-.94-.008" style="fill:#fff;fill-opacity:1;stroke:none;stroke-width:5.46746731;stroke-linejoin:round;stroke-miterlimit:4;stroke-dasharray:none;stroke-dashoffset:0;stroke-opacity:1;paint-order:normal" transform="translate(-43.232 -175.85)"/><path d="M46.835 177.429h.62v.639h-.62zm0 .958h.62v.639h-.62zm-.929 0h.62v.639h-.62zm-2.169-1.596h1.859v2.235h-1.859z" style="fill:#fff;fill-opacity:1;fill-rule:evenodd;stroke:none;stroke-width:1.98740709;stroke-linecap:butt;stroke-linejoin:round;stroke-miterlimit:4;stroke-dasharray:none;stroke-dashoffset:0;stroke-opacity:1;paint-order:normal" transform="translate(-43.232 -175.85)"/><path d="M45.596 176.791h.929v1.277h-.929z" style="fill:#fff;fill-opacity:1;fill-rule:evenodd;stroke:none;stroke-width:1.98740709;stroke-linecap:butt;stroke-linejoin:round;stroke-miterlimit:4;stroke-dasharray:none;stroke-dashoffset:0;stroke-opacity:1;paint-order:normal" transform="translate(-43.232 -175.85)"/><path d="M46.226 176.79h1.239v.319h-1.239z" style="fill:#fff;fill-opacity:1;fill-rule:evenodd;stroke:none;stroke-width:1.98740709;stroke-linecap:butt;stroke-linejoin:round;stroke-miterlimit:4;stroke-dasharray:none;stroke-dashoffset:0;stroke-opacity:1;paint-order:normal" transform="translate(-43.232 -175.85)"/></svg>