<svg xmlns="http://www.w3.org/2000/svg" width="15.614" height="14" viewBox="0 0 4.131 3.704"><path d="M-3.378 5.976 3.25 2.149v7.653z" style="fill:#fff;fill-opacity:1;stroke:none;stroke-width:2.26772;paint-order:markers stroke fill" transform="matrix(.23893 0 0 .27822 -5.13 1.885)"/><path d="M59.636 152.81s1.73-.016 1.794 1.222c.054 1.05-.967 1.323-1.67 1.327-.404.002-.898 0-.898 0" style="fill:none;stroke:#fcffff;stroke-width:.765;stroke-linecap:butt;stroke-linejoin:round;stroke-miterlimit:4;stroke-dasharray:none;stroke-opacity:1" transform="translate(-64.042 -149.357)"/><path d="m77 144.377-1.584 1.065 1.583 1.065v-.776c.111.004.405.025.696.124.183.063.353.154.467.27a.65.65 0 0 1 .197.464c.02.4-.119.56-.365.707s-.621.217-.924.219c-.401.002-.895-.002-.895-.002l-.004.765s.495.002.903 0c.399-.002.884-.07 1.31-.324.426-.253.772-.754.738-1.404a1.47 1.47 0 0 0-.418-.963 1.94 1.94 0 0 0-.761-.455 3.3 3.3 0 0 0-.944-.167z" style="fill:#fff;fill-opacity:1;stroke:none;stroke-width:.584682;paint-order:markers stroke fill" transform="translate(-64.042 -149.357)"/><path d="m65.576 149.357-1.534 1.031 1.534 1.031v-.691h1.918v1.652h-2.483v.681h2.822a.34.34 0 0 0 .34-.34v-2.334a.34.34 0 0 0-.34-.339h-2.257z" style="fill:#fff;fill-opacity:1;stroke:none;stroke-width:.566288;paint-order:markers stroke fill" transform="translate(-64.042 -149.357)"/><path d="M-3.378 5.976 3.25 2.149v7.653z" style="fill:#fff;fill-opacity:1;stroke:none;stroke-width:2.26772;paint-order:markers stroke fill" transform="matrix(.26011 0 0 .30289 1.156 6.707)"/><path d="M65.422 157.874h3.159v2.622h-3.172" style="fill:none;stroke:#fff;stroke-width:.765;stroke-linecap:butt;stroke-linejoin:round;stroke-miterlimit:4;stroke-dasharray:none;stroke-opacity:1" transform="translate(-64.042 -149.357)"/></svg>