<?xml version="1.0" encoding="UTF-8" standalone="no"?>
<!-- Created with Inkscape (http://www.inkscape.org/) -->

<svg
   width="15.614238"
   height="14.000013"
   viewBox="0 0 4.1312672 3.7041702"
   version="1.1"
   id="svg8"
   inkscape:version="1.1.1 (3bf5ae0d25, 2021-09-20, custom)"
   sodipodi:docname="return.svg"
   xmlns:inkscape="http://www.inkscape.org/namespaces/inkscape"
   xmlns:sodipodi="http://sodipodi.sourceforge.net/DTD/sodipodi-0.dtd"
   xmlns="http://www.w3.org/2000/svg"
   xmlns:svg="http://www.w3.org/2000/svg"
   xmlns:rdf="http://www.w3.org/1999/02/22-rdf-syntax-ns#"
   xmlns:cc="http://creativecommons.org/ns#"
   xmlns:dc="http://purl.org/dc/elements/1.1/">
  <defs
     id="defs2" />
  <sodipodi:namedview
     id="base"
     pagecolor="#212121"
     bordercolor="#666666"
     borderopacity="1.0"
     inkscape:pageopacity="0"
     inkscape:pageshadow="2"
     inkscape:zoom="16"
     inkscape:cx="-6.28125"
     inkscape:cy="9.40625"
     inkscape:document-units="mm"
     inkscape:current-layer="layer1"
     showgrid="false"
     inkscape:pagecheckerboard="false"
     fit-margin-top="0"
     fit-margin-left="0"
     fit-margin-right="0"
     fit-margin-bottom="0"
     units="px"
     inkscape:window-width="1849"
     inkscape:window-height="750"
     inkscape:window-x="27"
     inkscape:window-y="108"
     inkscape:window-maximized="0" />
  <metadata
     id="metadata5">
    <rdf:RDF>
      <cc:Work
         rdf:about="">
        <dc:format>image/svg+xml</dc:format>
        <dc:type
           rdf:resource="http://purl.org/dc/dcmitype/StillImage" />
      </cc:Work>
    </rdf:RDF>
  </metadata>
  <g
     inkscape:label="Layer 1"
     inkscape:groupmode="layer"
     id="layer1"
     transform="translate(-64.04231,-149.35723)">
    <path
       sodipodi:type="star"
       style="fill:#ffffff;fill-opacity:1;stroke:none;stroke-width:2.26772;paint-order:markers stroke fill"
       id="path3944"
       inkscape:flatsided="true"
       sodipodi:sides="3"
       sodipodi:cx="1.040904"
       sodipodi:cy="5.9755015"
       sodipodi:r1="4.418612"
       sodipodi:r2="2.209306"
       sodipodi:arg1="3.1415927"
       sodipodi:arg2="4.1887902"
       inkscape:rounded="0"
       inkscape:randomized="0"
       d="m -3.377708,5.9755013 6.6279182,-3.8266299 -3e-7,7.6532605 z"
       transform="matrix(0.23892986,0,0,0.27822036,58.911935,151.24216)"
       inkscape:transform-center-x="0.26393421"
       inkscape:export-filename="/home/kai/Tauon/dev/assets/return.png"
       inkscape:export-xdpi="103.80133"
       inkscape:export-ydpi="103.80133"
       inkscape:transform-center-y="-2.8044867e-06" />
    <path
       style="fill:none;stroke:#fcffff;stroke-width:0.765;stroke-linecap:butt;stroke-linejoin:round;stroke-miterlimit:4;stroke-dasharray:none;stroke-opacity:1"
       d="m 59.635778,152.80977 c 0,0 1.730291,-0.0157 1.793835,1.22237 0.05392,1.05062 -0.96691,1.32306 -1.668925,1.32725 -0.404364,0.002 -0.898691,-8.3e-4 -0.898691,-8.3e-4"
       id="path3946"
       sodipodi:nodetypes="cssc"
       inkscape:export-filename="/home/kai/Tauon/dev/assets/return.png"
       inkscape:export-xdpi="103.80133"
       inkscape:export-ydpi="103.80133" />
    <path
       id="path6421"
       style="fill:#ffffff;fill-opacity:1;stroke:none;stroke-width:0.584682;paint-order:markers stroke fill"
       inkscape:transform-center-x="0.26393421"
       inkscape:transform-center-y="-2.8044867e-06"
       d="m 76.999071,144.37698 -1.583366,1.06505 1.583366,1.06454 v -0.77515 c 0.110889,0.004 0.40534,0.0241 0.695565,0.12351 0.182994,0.0627 0.353232,0.15433 0.467155,0.26923 0.113922,0.11491 0.185558,0.24436 0.196887,0.46509 0.02054,0.40022 -0.118664,0.56052 -0.364835,0.70693 -0.246171,0.14641 -0.621339,0.21678 -0.923975,0.21859 -0.401037,0.002 -0.894519,-0.002 -0.894519,-0.002 l -0.0041,0.76533 c 0,0 0.49458,0.002 0.90227,0 0.399378,-0.002 0.884248,-0.0705 1.310515,-0.32401 0.426267,-0.25351 0.771836,-0.75418 0.738456,-1.40457 -0.02044,-0.39831 -0.189683,-0.73238 -0.418062,-0.96273 -0.228378,-0.23036 -0.50419,-0.3671 -0.761711,-0.45527 -0.414713,-0.14199 -0.805376,-0.16364 -0.943612,-0.16691 z"
       inkscape:export-filename="/home/kai/Tauon/dev/assets/return.png"
       inkscape:export-xdpi="103.80133"
       inkscape:export-ydpi="103.80133" />
    <path
       id="path6513"
       style="fill:#ffffff;fill-opacity:1;stroke:none;stroke-width:0.566288;paint-order:markers stroke fill"
       inkscape:transform-center-x="0.25563148"
       inkscape:transform-center-y="-2.5391254e-06"
       d="m 65.576479,149.35723 -1.534169,1.0312 1.534169,1.03076 v -0.69146 h 1.917595 v 1.65233 h -2.483081 v 0.68134 h 2.821912 a 0.34032918,0.34032918 0 0 0 0.340672,-0.34068 v -2.33366 a 0.34032918,0.34032918 0 0 0 -0.340672,-0.33883 h -2.256426 z"
       inkscape:export-filename="/home/kai/Tauon/dev/assets/return.png"
       inkscape:export-xdpi="95.999908"
       inkscape:export-ydpi="95.999908" />
    <path
       sodipodi:type="star"
       style="fill:#ffffff;fill-opacity:1;stroke:none;stroke-width:2.26772;paint-order:markers stroke fill"
       id="path6912"
       inkscape:flatsided="true"
       sodipodi:sides="3"
       sodipodi:cx="1.040904"
       sodipodi:cy="5.9755015"
       sodipodi:r1="4.418612"
       sodipodi:r2="2.209306"
       sodipodi:arg1="3.1415927"
       sodipodi:arg2="4.1887902"
       inkscape:rounded="0"
       inkscape:randomized="0"
       d="m -3.377708,5.9755013 6.6279182,-3.8266299 -3e-7,7.6532605 z"
       transform="matrix(0.26011441,0,0,0.30288857,65.198023,156.06455)"
       inkscape:transform-center-x="0.28733596"
       inkscape:export-filename="/home/kai/Tauon/dev/assets/return.png"
       inkscape:export-xdpi="103.80133"
       inkscape:export-ydpi="103.80133"
       inkscape:transform-center-y="-4.243256e-06" />
    <path
       style="fill:none;stroke:#ffffff;stroke-width:0.765;stroke-linecap:butt;stroke-linejoin:round;stroke-miterlimit:4;stroke-dasharray:none;stroke-opacity:1"
       d="m 65.421794,157.87398 h 3.159034 v 2.62221 h -3.17223"
       id="path6914" />
  </g>
</svg>
