<?xml version="1.0" encoding="UTF-8" standalone="no"?>
<svg
   xmlns:dc="http://purl.org/dc/elements/1.1/"
   xmlns:cc="http://creativecommons.org/ns#"
   xmlns:rdf="http://www.w3.org/1999/02/22-rdf-syntax-ns#"
   xmlns:svg="http://www.w3.org/2000/svg"
   xmlns="http://www.w3.org/2000/svg"
   xmlns:sodipodi="http://sodipodi.sourceforge.net/DTD/sodipodi-0.dtd"
   xmlns:inkscape="http://www.inkscape.org/namespaces/inkscape"
   version="1.1"
   id="svg2"
   xml:space="preserve"
   width="21"
   height="21"
   viewBox="0 0 21 21"
   sodipodi:docname="spot-info.svg"
   inkscape:version="1.0.1 (3bc2e813f5, 2020-09-07)"
   inkscape:export-filename="/home/kai/Tauon/dev/assets/spot-info.png"
   inkscape:export-xdpi="96"
   inkscape:export-ydpi="96"><metadata
     id="metadata8"><rdf:RDF><cc:Work
         rdf:about=""><dc:format>image/svg+xml</dc:format><dc:type
           rdf:resource="http://purl.org/dc/dcmitype/StillImage" /><dc:title></dc:title></cc:Work></rdf:RDF></metadata><defs
     id="defs6" /><sodipodi:namedview
     pagecolor="#292929"
     bordercolor="#666666"
     borderopacity="1"
     objecttolerance="10"
     gridtolerance="10"
     guidetolerance="10"
     inkscape:pageopacity="0"
     inkscape:pageshadow="2"
     inkscape:window-width="2169"
     inkscape:window-height="868"
     id="namedview4"
     showgrid="false"
     inkscape:zoom="15.207292"
     inkscape:cx="-1.7925489"
     inkscape:cy="9.9005384"
     inkscape:window-x="32"
     inkscape:window-y="34"
     inkscape:window-maximized="0"
     inkscape:current-layer="g10"
     inkscape:document-rotation="0"
     fit-margin-top="0"
     fit-margin-left="0"
     fit-margin-right="0"
     fit-margin-bottom="0" /><g
     id="g10"
     inkscape:groupmode="layer"
     inkscape:label="ink_ext_XXXXXX"
     transform="matrix(1.3333333,0,0,-1.3333333,-2.5985054,223.15118)"><path
       d="m 14.432909,160.38204 c -2.538454,1.50751 -6.7255977,1.64612 -9.1488654,0.91065 -0.3891569,-0.11811 -0.800684,0.10166 -0.9185611,0.49069 -0.117951,0.38941 0.1014952,0.80064 0.4909436,0.91894 2.7817492,0.84436 7.4059979,0.6813 10.3283139,-1.05341 0.350009,-0.20783 0.464829,-0.65986 0.257382,-1.00929 -0.207636,-0.35 -0.660051,-0.46537 -1.009213,-0.25758 z m -0.08313,-2.23285 c -0.178107,-0.28898 -0.55595,-0.37963 -0.844553,-0.20217 -2.116318,1.30088 -5.3433741,1.67773 -7.8471284,0.91771 -0.3246839,-0.0981 -0.6676303,0.085 -0.7662574,0.40903 -0.097827,0.32468 0.085333,0.667 0.409431,0.76574 2.8601771,0.86792 6.4158278,0.44752 8.8465148,-1.0462 0.288603,-0.17776 0.379442,-0.55578 0.201993,-0.84411 z m -0.963604,-2.14435 c -0.141527,-0.23208 -0.44367,-0.30478 -0.674909,-0.16332 -1.84928,1.13023 -4.1769018,1.38545 -6.9181019,0.75936 -0.2641522,-0.0606 -0.5274203,0.10495 -0.5876606,0.36909 -0.060507,0.26406 0.1044007,0.52736 0.369135,0.58764 2.9997666,0.68577 5.5729865,0.39063 7.6486635,-0.87775 0.231427,-0.14135 0.304305,-0.44367 0.162873,-0.67502 z m -3.6115777,11.35855 c -4.3492075,0 -7.8750366,-3.52576 -7.8750366,-7.87488 0,-4.34966 3.5258291,-7.87512 7.8750366,-7.87512 4.3493017,0 7.8749637,3.52546 7.8749637,7.87512 0,4.34912 -3.525662,7.87488 -7.8749637,7.87488"
       style="fill:#ffffff;fill-opacity:1;fill-rule:nonzero;stroke:none;stroke-width:0.00940378"
       id="path14"
       inkscape:export-filename="/home/kai/Tauon/dev/assets/spot-info.png"
       inkscape:export-xdpi="92.054794"
       inkscape:export-ydpi="92.054794" /></g></svg>
