<svg xmlns="http://www.w3.org/2000/svg" xml:space="preserve" width="21" height="21"><path d="M14.433 160.382c-2.539 1.508-6.726 1.646-9.149.91a.736.736 0 1 0-.428 1.41c2.782.845 7.406.682 10.329-1.053a.737.737 0 0 0-.752-1.267m-.083-2.233a.614.614 0 0 0-.845-.202c-2.116 1.3-5.343 1.678-7.847.918a.615.615 0 0 0-.357 1.174c2.86.868 6.416.448 8.847-1.046a.614.614 0 0 0 .202-.844m-.964-2.144a.49.49 0 0 0-.675-.163c-1.849 1.13-4.177 1.385-6.918.759a.49.49 0 1 0-.218.957c3 .685 5.573.39 7.648-.878a.49.49 0 0 0 .163-.675m-3.611 11.358a7.875 7.875 0 1 1 0-15.75 7.875 7.875 0 0 1 0 15.75" style="fill:#fff;fill-opacity:1;fill-rule:nonzero;stroke:none;stroke-width:.00940378" transform="matrix(1.33333 0 0 -1.33333 -2.599 223.151)"/></svg>