<?xml version="1.0" encoding="UTF-8" standalone="no"?>
<svg
   version="1.1"
   id="svg2"
   xml:space="preserve"
   width="16"
   height="16"
   viewBox="0 0 16 16"
   sodipodi:docname="spot-playlist.svg"
   inkscape:version="1.2.2 (b0a8486541, 2022-12-01)"
   inkscape:export-filename="../spot-playlist.png"
   inkscape:export-xdpi="96"
   inkscape:export-ydpi="96"
   xmlns:inkscape="http://www.inkscape.org/namespaces/inkscape"
   xmlns:sodipodi="http://sodipodi.sourceforge.net/DTD/sodipodi-0.dtd"
   xmlns="http://www.w3.org/2000/svg"
   xmlns:svg="http://www.w3.org/2000/svg"
   xmlns:rdf="http://www.w3.org/1999/02/22-rdf-syntax-ns#"
   xmlns:cc="http://creativecommons.org/ns#"
   xmlns:dc="http://purl.org/dc/elements/1.1/"><metadata
     id="metadata8"><rdf:RDF><cc:Work
         rdf:about=""><dc:format>image/svg+xml</dc:format><dc:type
           rdf:resource="http://purl.org/dc/dcmitype/StillImage" /></cc:Work></rdf:RDF></metadata><defs
     id="defs6" /><sodipodi:namedview
     pagecolor="#292929"
     bordercolor="#666666"
     borderopacity="1"
     objecttolerance="10"
     gridtolerance="10"
     guidetolerance="10"
     inkscape:pageopacity="0"
     inkscape:pageshadow="2"
     inkscape:window-width="1488"
     inkscape:window-height="991"
     id="namedview4"
     showgrid="false"
     inkscape:zoom="21.506359"
     inkscape:cx="-2.999113"
     inkscape:cy="9.8575496"
     inkscape:window-x="26"
     inkscape:window-y="23"
     inkscape:window-maximized="0"
     inkscape:current-layer="g10"
     inkscape:document-rotation="0"
     fit-margin-top="0"
     fit-margin-left="0"
     fit-margin-right="0"
     fit-margin-bottom="0"
     inkscape:showpageshadow="0"
     inkscape:pagecheckerboard="0"
     inkscape:deskcolor="#292929" /><g
     id="g10"
     inkscape:groupmode="layer"
     inkscape:label="ink_ext_XXXXXX"
     transform="matrix(1.3333333,0,0,-1.3333333,-5.0327555,220.65118)"><path
       d="m 0.86375478,160.19952 c -1.93405998,1.14858 -5.12426578,1.25418 -6.97056478,0.69382 -0.2965,-0.09 -0.610045,0.0774 -0.699856,0.37386 -0.08987,0.2967 0.07733,0.61002 0.374052,0.70013 2.119428,0.64334 5.64266478,0.5191 7.8691918,-0.80258 0.266673,-0.1584 0.354156,-0.50276 0.1961,-0.769 -0.1582,-0.26666 -0.502896,-0.35456 -0.76892302,-0.1962 z m -0.06333,-1.70124 c -0.135701,-0.22017 -0.423581,-0.28924 -0.643469,-0.154 -1.61243298,0.99115 -4.07114278,1.2783 -5.97876478,0.69922 -0.247379,-0.0748 -0.508671,0.0649 -0.583816,0.31165 -0.07453,0.24736 0.06501,0.50818 0.311948,0.58343 2.179182,0.66126 4.8882488,0.34096 6.74020078,-0.79713 0.219888,-0.13541 0.289101,-0.42345 0.153901,-0.64313 z m -0.734174,-1.63379 c -0.107826,-0.1768 -0.338034,-0.23221 -0.514216,-0.12441 -1.40897598,0.86112 -3.18240278,1.05558 -5.27093678,0.57856 -0.201258,-0.0461 -0.401844,0.08 -0.447741,0.28121 -0.0461,0.20119 0.07954,0.40179 0.281246,0.44771 2.285536,0.5225 4.2460848,0.29764 5.82755278,-0.66876 0.17632,-0.10759 0.231853,-0.33802 0.124094,-0.51429 z m -2.75167978,8.65414 c -3.313682,0 -6.000028,-2.68629 -6.000028,-5.99989 0,-3.31406 2.686346,-6.00011 6.000028,-6.00011 3.31375478,0 5.9999728,2.68605 5.9999728,6.00011 0,3.3136 -2.68621802,5.99989 -5.9999728,5.99989"
       style="fill:#ffffff;fill-opacity:1;fill-rule:nonzero;stroke:none;stroke-width:0.00716479"
       id="path14"
       inkscape:export-filename="../spot-playlist.png"
       inkscape:export-xdpi="96"
       inkscape:export-ydpi="96"
       sodipodi:nodetypes="cccccccccccccccccccccccccsssc" /><path
       d="m 13.99432,160.19639 c -2.256874,1.53144 -5.979558,1.67224 -8.134023,0.9251 -0.34599,-0.12 -0.711868,0.1032 -0.81667,0.49848 -0.104868,0.3956 0.09024,0.81336 0.436486,0.9335 2.473182,0.85779 6.584483,0.69214 9.18264,-1.0701 0.311183,-0.2112 0.413268,-0.67035 0.228831,-1.02534 -0.184605,-0.35554 -0.586834,-0.47274 -0.897264,-0.2616 z m -0.0739,-2.26832 c -0.15835,-0.29356 -0.49428,-0.38565 -0.75087,-0.20533 -1.881565,1.32153 -4.750659,1.7044 -6.976683,0.93229 -0.288667,-0.0997 -0.593572,0.0865 -0.681259,0.41554 -0.08698,0.32981 0.07587,0.67757 0.364014,0.7779 2.542911,0.88168 5.704148,0.45462 7.86521,-1.06284 0.25659,-0.18054 0.337355,-0.5646 0.179588,-0.8575 z m -0.856714,-2.17838 c -0.125824,-0.23573 -0.394456,-0.30961 -0.600045,-0.16588 -1.644148,1.14816 -3.713578,1.40744 -6.15071,0.77141 -0.234851,-0.0615 -0.468916,0.10667 -0.522473,0.37495 -0.0538,0.26825 0.09282,0.53572 0.328188,0.59694 2.667016,0.69667 4.9548,0.39686 6.800232,-0.89167 0.205749,-0.14346 0.270551,-0.4507 0.144806,-0.68572 z"
       style="fill:#ffffff;fill-opacity:1;fill-rule:nonzero;stroke:none;stroke-width:0.00670275"
       id="path399" /></g></svg>
