<?xml version="1.0" encoding="UTF-8" standalone="no"?>
<svg
   xmlns:dc="http://purl.org/dc/elements/1.1/"
   xmlns:cc="http://creativecommons.org/ns#"
   xmlns:rdf="http://www.w3.org/1999/02/22-rdf-syntax-ns#"
   xmlns:svg="http://www.w3.org/2000/svg"
   xmlns="http://www.w3.org/2000/svg"
   xmlns:xlink="http://www.w3.org/1999/xlink"
   xmlns:sodipodi="http://sodipodi.sourceforge.net/DTD/sodipodi-0.dtd"
   xmlns:inkscape="http://www.inkscape.org/namespaces/inkscape"
   inkscape:export-ydpi="96"
   inkscape:export-xdpi="96"
   inkscape:export-filename="/home/kai/Tauon/dev/assets/sunset.png"
   width="26.458332mm"
   height="26.458334mm"
   viewBox="0 0 26.458332 26.458334"
   version="1.1"
   id="svg8"
   inkscape:version="1.0 (4035a4fb49, 2020-05-01)"
   sodipodi:docname="sunset.svg">
  <defs
     id="defs2">
    <linearGradient
       inkscape:collect="always"
       id="linearGradient839">
      <stop
         style="stop-color:#c83937;stop-opacity:1"
         offset="0"
         id="stop835" />
      <stop
         style="stop-color:#ff9955;stop-opacity:1"
         offset="1"
         id="stop837" />
    </linearGradient>
    <linearGradient
       inkscape:collect="always"
       xlink:href="#linearGradient839"
       id="linearGradient841"
       x1="80.840714"
       y1="87.713875"
       x2="81.104591"
       y2="37.733746"
       gradientUnits="userSpaceOnUse"
       gradientTransform="matrix(0.4481508,0,0,0.4481466,44.457437,33.342158)" />
    <filter
       height="1.0641705"
       y="-0.032085264"
       width="1.0641705"
       x="-0.032085265"
       id="filter2353"
       style="color-interpolation-filters:sRGB"
       inkscape:collect="always">
      <feGaussianBlur
         id="feGaussianBlur2355"
         stdDeviation="0.31362655"
         inkscape:collect="always" />
    </filter>
    <linearGradient
       y2="37.733746"
       x2="81.104591"
       y1="87.713875"
       x1="80.840714"
       gradientTransform="matrix(0.42483759,0,0,0.4248336,46.353529,34.76079)"
       gradientUnits="userSpaceOnUse"
       id="linearGradient2357"
       xlink:href="#linearGradient839"
       inkscape:collect="always" />
  </defs>
  <sodipodi:namedview
     fit-margin-bottom="0"
     fit-margin-right="0"
     fit-margin-left="0"
     fit-margin-top="0"
     id="base"
     pagecolor="#151515"
     bordercolor="#262626"
     borderopacity="1"
     inkscape:pageopacity="0"
     inkscape:pageshadow="2"
     inkscape:zoom="3.959798"
     inkscape:cx="93.121596"
     inkscape:cy="37.356336"
     inkscape:document-units="mm"
     inkscape:current-layer="layer1"
     inkscape:document-rotation="0"
     showgrid="false"
     inkscape:window-width="2560"
     inkscape:window-height="1023"
     inkscape:window-x="0"
     inkscape:window-y="27"
     inkscape:window-maximized="1" />
  <metadata
     id="metadata5">
    <rdf:RDF>
      <cc:Work
         rdf:about="">
        <dc:format>image/svg+xml</dc:format>
        <dc:type
           rdf:resource="http://purl.org/dc/dcmitype/StillImage" />
        <dc:title></dc:title>
      </cc:Work>
    </rdf:RDF>
  </metadata>
  <g
     transform="translate(-67.329998,-47.049841)"
     inkscape:label="Layer 1"
     inkscape:groupmode="layer"
     id="layer1">
    <path
       transform="matrix(1.0548757,0,0,1.0548757,-4.4397694,-3.3261521)"
       d="M 80.578203,48.639598 A 11.729839,11.729729 0 0 0 68.848352,60.369339 11.729839,11.729729 0 0 0 69.04001,62.480646 H 92.116177 A 11.729839,11.729729 0 0 0 92.307835,60.369339 11.729839,11.729729 0 0 0 80.578203,48.639598 Z M 69.662408,64.662641 a 11.729839,11.729729 0 0 0 0.525362,1.149506 h 20.780865 a 11.729839,11.729729 0 0 0 0.525143,-1.149506 z m 1.804848,3.093962 a 11.729839,11.729729 0 0 0 0.76466,0.854225 H 88.92449 a 11.729839,11.729729 0 0 0 0.764661,-0.854225 z m 2.458199,2.273105 a 11.729839,11.729729 0 0 0 0.912632,0.568826 h 11.480014 a 11.729839,11.729729 0 0 0 0.91285,-0.568826 z m 2.89794,1.45203 a 11.729839,11.729729 0 0 0 3.754808,0.617344 11.729839,11.729729 0 0 0 3.754809,-0.617344 z"
       style="opacity:1;fill:url(#linearGradient2357);fill-opacity:1;stroke-width:0.338169;paint-order:markers stroke fill;filter:url(#filter2353)"
       id="path1423" />
    <path
       id="path833"
       style="fill:url(#linearGradient841);fill-opacity:1;stroke-width:0.356727;paint-order:markers stroke fill"
       d="M 80.560215,47.982576 A 12.373521,12.373405 0 0 0 68.186681,60.355994 12.373521,12.373405 0 0 0 68.388856,62.58316 H 92.731341 A 12.373521,12.373405 0 0 0 92.933518,60.355994 12.373521,12.373405 0 0 0 80.560215,47.982576 Z M 69.045408,64.884893 a 12.373521,12.373405 0 0 0 0.554191,1.212586 h 21.921228 a 12.373521,12.373405 0 0 0 0.553961,-1.212586 z m 1.90389,3.263745 a 12.373521,12.373405 0 0 0 0.806621,0.901101 h 17.60859 a 12.373521,12.373405 0 0 0 0.806622,-0.901101 z m 2.593094,2.397843 a 12.373521,12.373405 0 0 0 0.962714,0.600041 h 12.109986 a 12.373521,12.373405 0 0 0 0.962944,-0.600041 z m 3.056966,1.53171 a 12.373521,12.373405 0 0 0 3.960857,0.651223 12.373521,12.373405 0 0 0 3.960856,-0.651223 z" />
  </g>
</svg>
