<svg xmlns="http://www.w3.org/2000/svg" xml:space="preserve" width="45" height="12.999" viewBox="0 0 11.906 3.439"><path d="M168.41 235.686v.476h-1.607v.004l-.557.608-.558-.613h-2.137v.95h1.849l.269.295-.269.294h-1.85v.95h2.138l.557-.611.557.612v-.002.002h1.608v.474l1.407-.474 1.406-.476-1.406-.475-.872-.295.872-.294 1.406-.475-1.406-.475zm-1.32 1.425h1.32v.59h-1.32l-.268-.295z" style="fill:#fff;stroke-width:.160754" transform="translate(-159.317 -235.686)"/><path d="M161.284 235.879a1.554 1.554 0 0 0-1.554 1.554 1.554 1.554 0 0 0 1.554 1.554h.009v-1.028h-.01a.527.527 0 0 1-.526-.526.527.527 0 0 1 .527-.527l.009.001v-1.028zm.15 0v3.116h1.59v-3.116zm1.102.56h.163v1.499a.286.48 75.735 0 1-.154.256.286.48 75.735 0 1-.663.086.286.48 75.735 0 1 .028-.415.286.48 75.735 0 1 .626-.107zm-1.252.91a.084.084 0 0 0-.084.083.084.084 0 0 0 .084.085l.009-.001v-.167z" style="fill:#fff;stroke-width:.266897" transform="translate(-159.317 -235.686)"/></svg>