<?xml version="1.0" encoding="UTF-8" standalone="no"?>
<svg
   xmlns:dc="http://purl.org/dc/elements/1.1/"
   xmlns:cc="http://creativecommons.org/ns#"
   xmlns:rdf="http://www.w3.org/1999/02/22-rdf-syntax-ns#"
   xmlns:svg="http://www.w3.org/2000/svg"
   xmlns="http://www.w3.org/2000/svg"
   xmlns:sodipodi="http://sodipodi.sourceforge.net/DTD/sodipodi-0.dtd"
   xmlns:inkscape="http://www.inkscape.org/namespaces/inkscape"
   sodipodi:docname="title.svg"
   inkscape:version="1.0 (4035a4fb49, 2020-05-01)"
   id="svg8"
   version="1.1"
   viewBox="0 0 48.806366 4.7625055"
   height="4.7625055mm"
   width="48.806366mm">
  <defs
     id="defs2" />
  <sodipodi:namedview
     fit-margin-bottom="0"
     fit-margin-right="0"
     fit-margin-left="0"
     fit-margin-top="0"
     inkscape:window-maximized="0"
     inkscape:window-y="161"
     inkscape:window-x="366"
     inkscape:window-height="877"
     inkscape:window-width="2061"
     showgrid="false"
     inkscape:document-rotation="0"
     inkscape:current-layer="layer1"
     inkscape:document-units="mm"
     inkscape:cy="17.478698"
     inkscape:cx="98.943398"
     inkscape:zoom="5.6"
     inkscape:pageshadow="2"
     inkscape:pageopacity="0"
     borderopacity="1.0"
     bordercolor="#666666"
     pagecolor="#272727"
     id="base" />
  <metadata
     id="metadata5">
    <rdf:RDF>
      <cc:Work
         rdf:about="">
        <dc:format>image/svg+xml</dc:format>
        <dc:type
           rdf:resource="http://purl.org/dc/dcmitype/StillImage" />
        <dc:title></dc:title>
      </cc:Work>
    </rdf:RDF>
  </metadata>
  <g
     transform="translate(-86.667002,-80.294799)"
     id="layer1"
     inkscape:groupmode="layer"
     inkscape:label="Layer 1">
    <g
       transform="matrix(0.4933626,0,0,0.4933626,56.272309,41.88678)"
       aria-label="Tauon Music Box"
       id="text871"
       style="font-style:normal;font-weight:normal;font-size:10.5833px;line-height:1.25;font-family:sans-serif;letter-spacing:0px;word-spacing:0px;fill:#000000;fill-opacity:1;stroke:none;stroke-width:0.264583"
       inkscape:export-filename="/home/kai/Tauon/dev/assets/title.png"
       inkscape:export-xdpi="47.362862"
       inkscape:export-ydpi="47.362862">
      <path
         d="m 67.751533,77.849475 0.925005,0.04651 h 0.925006 q 0.268716,0 0.392739,0.248046 l -0.05168,0.04651 q 0.242878,0.0155 0.242878,0.144693 v 0.05168 h -0.532265 v 0.04651 h 0.191202 v 0.09819 h -0.09302 l 0.04651,0.05168 -0.04651,0.04651 v 0.09819 l 0.242878,0.04651 v 0.05168 l -0.05168,0.04651 v 0.05168 q 0.294555,0 0.294555,0.387572 0.196369,0.02584 0.196369,0.144694 v 0.09818 l -2.878368,0.341064 q -0.366901,0 -0.583941,0.925005 -2.573479,5.012598 -3.074738,6.387187 -0.294555,0.294554 -0.485757,0.294554 l -0.19637,-0.196369 q -0.289387,0 -0.289387,-0.242879 l -0.05168,0.05168 h -0.04651 q -0.01033,-0.124023 -0.485757,-0.439248 l -0.149861,-0.248046 q 0,-0.981849 2.340935,-5.214135 l 0.392739,-0.925006 -1.808669,0.289388 q -1.02319,0 -1.364254,-0.925006 l -0.144693,-0.583942 v -0.09818 q 0,-0.310058 0.387572,-0.583942 h 0.635618 q 1.529618,0 5.121118,-0.537433 z"
         style="font-style:normal;font-variant:normal;font-weight:normal;font-stretch:normal;font-family:lazer84;-inkscape-font-specification:lazer84;fill:#ffffff;fill-opacity:1;stroke-width:0.264583"
         id="path873" />
      <path
         d="m 72.17708,78.319729 q 1.245399,0 1.52445,0.73897 0.160197,0.656289 0.387572,2.604484 l 0.04651,0.04651 q 0.02584,0.30489 0.129191,0.30489 l 1.390091,-0.1757 v 0.08785 h 0.04651 l 0.692462,-0.04134 v 0.08268 l -0.30489,0.08785 v 0.04651 h 0.30489 l 0.30489,-0.04651 v 0.08785 q -0.444416,0.1757 -0.692462,0.1757 v 0.08785 l 0.21704,-0.04651 q 0.299723,0.08785 0.299723,0.175699 l 0.222208,-0.04651 q 0.868161,0.02584 0.868161,0.1757 l -0.04651,0.04134 0.30489,0.08785 v 0.08785 q -0.589109,0.30489 -2.433952,0.52193 l -0.780312,0.129191 q 0.563272,2.211744 0.563272,3.002391 v 0.170532 l -0.129191,0.134358 h -0.04651 q -0.144693,0 -0.299722,-0.134358 v 0.134358 h -0.08785 v -0.08785 l -0.134358,0.08785 -0.170532,-0.134358 -0.43408,0.175699 -0.351399,-0.346231 q -0.21704,-0.351398 -0.651121,-2.56831 h -0.04134 q -2.738842,0.754473 -2.738842,1.178219 -0.175699,0.10852 -1.043861,1.343583 -0.299722,0.351398 -0.480589,0.351398 l -0.08785,-0.21704 -0.04134,0.04134 h -0.04134 Q 68.17734,86.510415 68.17734,86.319213 l -0.04134,0.04134 h -0.08785 v -0.08785 q -0.180867,0 -0.346231,-0.258381 -0.1757,0 -0.1757,-0.08785 v -0.30489 q 0,-0.485757 1.043861,-1.607132 0.444416,-0.73897 1.4366,-2.04638 l 1.477941,-2.604484 0.299723,-0.873329 q 0.232543,-0.170531 0.392739,-0.170531 z m -0.346231,4.216783 v 0.04134 Q 72.56982,82.38665 72.56982,82.319471 l -0.129191,-0.69763 q -0.118855,0.05168 -0.60978,0.914671 z m 4.041085,-0.738971 h 0.08785 v 0.08785 h -0.08785 z m 0.04651,0.30489 v 0.04134 h 0.08785 v -0.04134 z"
         style="font-style:normal;font-variant:normal;font-weight:normal;font-stretch:normal;font-family:lazer84;-inkscape-font-specification:lazer84;fill:#ffffff;fill-opacity:1;stroke-width:0.264583"
         id="path875" />
      <path
         d="m 78.09918,78.113024 h 0.227376 q 0.7183,0 1.173051,0.764808 l 0.04134,0.180867 q 0,0.377237 -0.992184,2.258253 -1.038693,2.041213 -1.038693,3.741362 v 0.134358 q 1.167883,-0.759641 1.896519,-1.85001 1.715652,-2.185906 2.030877,-3.15742 L 81.706184,79.6013 q 0.134358,0 0.134358,-0.134358 l 0.04651,-0.04651 h 0.09302 V 79.6013 h 0.04134 q 0.124023,-0.764809 0.227375,-0.764809 h 0.04651 v 0.180867 h 0.04134 v -0.361734 h 0.09302 v 0.134359 q 0.160197,-0.08268 0.403075,-0.676959 h 0.04651 q 0.449583,0.418577 0.449583,1.307409 0,2.976553 -3.829211,6.764424 -0.733803,0.454751 -1.669143,0.454751 -1.731155,0 -2.304762,-1.266069 l -0.08785,-0.542601 V 84.60873 q 0,-1.777663 0.723468,-3.15742 l 1.173051,-2.754345 q 0.382405,-0.583941 0.764809,-0.583941 z"
         style="font-style:normal;font-variant:normal;font-weight:normal;font-stretch:normal;font-family:lazer84;-inkscape-font-specification:lazer84;fill:#ffffff;fill-opacity:1;stroke-width:0.264583"
         id="path877" />
      <path
         d="m 90.000226,78.102688 h 0.05168 q 0.490925,0 0.992184,0.945676 l 0.05168,0.05168 v 0.232543 q 0,0.222208 -0.744139,0.382405 v 0.04651 q 1.142046,1.41593 1.142046,2.650993 V 82.6502 q 0,3.059235 -2.63549,3.932564 -0.899167,0.237711 -1.488276,0.237711 h -0.547769 q -2.315096,0 -3.333119,-2.366773 -0.144693,-0.03101 -0.19637,-0.852659 v -0.335896 q 0,-2.294426 3.327952,-4.165107 2.103224,-0.997352 3.379628,-0.997352 z m -4.867905,5.591372 v 0.04651 q 0,0.821653 1.043861,0.945676 h 0.397907 q 1.607132,0 2.981721,-1.844843 0.211873,-0.485757 0.294555,-1.281571 -0.04651,-0.661457 -0.144694,-0.80615 l 0.04651,-0.139526 q -0.134359,-0.713133 -0.19637,-0.713133 -1.462438,0.19637 -3.379628,1.896519 -1.043861,1.012855 -1.043861,1.896519 z"
         style="font-style:normal;font-variant:normal;font-weight:normal;font-stretch:normal;font-family:lazer84;-inkscape-font-specification:lazer84;fill:#ffffff;fill-opacity:1;stroke-width:0.264583"
         id="path879" />
      <path
         d="m 99.343295,78.082018 h 0.32556 q 0.620115,0 1.023195,0.558103 v 0.139526 l -1.767333,4.55268 q -0.651121,1.204057 -1.302242,3.39513 l -0.139526,0.139526 h -0.139526 l -0.186034,-0.139526 -0.04651,0.04651 h -0.232543 l -0.232543,-0.139526 -0.465087,0.04651 -0.372069,-0.418578 V 85.93681 q 0,-0.206705 0.325561,-0.976681 l -1.204057,-2.878368 -0.37207,-1.116207 h -0.04651 l -1.860346,3.901558 q -0.32556,0.666624 -0.465086,1.534785 l 0.04651,0.04651 v 0.04651 q -0.07751,0.372069 -0.186034,0.372069 H 91.90708 l -0.465086,-0.279052 h -0.09302 l -0.186034,0.04651 -0.139526,-0.04651 -0.09302,0.09302 -0.04651,-0.04651 h -0.04651 l -0.04651,0.04651 -0.418578,-0.558104 v -0.18604 q 0,-0.837155 2.185906,-5.110782 l 1.116207,-2.371941 q 0.253214,-0.201538 1.576126,-0.279052 0.315226,0 0.651121,0.465086 v 0.04651 q 0,1.317745 1.209225,3.901558 0.651121,-1.116207 1.441768,-3.808541 0.160196,-0.604612 0.558104,-0.604612 0,-0.08268 0.232543,-0.09302 z"
         style="font-style:normal;font-variant:normal;font-weight:normal;font-stretch:normal;font-family:lazer84;-inkscape-font-specification:lazer84;fill:#ffffff;fill-opacity:1;stroke-width:0.264583"
         id="path881" />
      <path
         d="m 105.70981,78.045844 h 0.23254 q 0.53227,0 0.93018,0.69763 l -0.093,1.860346 q 0,0.785479 0.23254,1.260901 0.0982,-0.0052 0.93534,-0.935341 0.15503,-0.04651 1.86035,-1.813837 0.64078,-0.883664 1.30741,-0.883664 l 0.32556,-0.04651 q 0.45475,0.103353 0.51159,0.279052 0.10336,0 0.41858,0.372069 v 0.09302 q 0,0.470254 -1.35392,3.446807 -0.45992,1.116207 -0.60461,1.116207 l 0.0465,0.04651 v 0.04651 l -0.60461,1.209225 q -0.0827,0.0052 -0.74414,1.539953 L 108.78456,86.7533 H 108.459 v -0.09302 l -0.18604,0.09302 q 0,-0.103353 -0.32556,-0.186035 l -0.093,0.09302 q -0.1292,-0.0155 -0.18604,-0.232543 -0.18603,0 -0.18603,-0.09302 v -0.325561 q 0,-0.904334 1.39526,-3.493315 -0.72864,0.671791 -1.39526,1.674311 -0.15503,0 -0.42375,0.279051 h -0.0465 q -0.49609,-0.346231 -0.93017,-0.418577 -0.47025,-0.320393 -0.83716,-1.906855 h -0.0465 q -2.03087,4.6612 -2.23758,4.842067 h -0.093 l -0.23255,-0.139526 -0.13952,0.04651 -0.0465,-0.04651 -0.0465,0.04651 -0.093,-0.186034 -0.093,0.09302 -0.0465,-0.04651 -0.41858,0.09302 q -0.10335,-0.253214 -0.27905,-0.279052 v -0.186035 q 0,-1.116207 2.65616,-6.33551 0.62528,-1.906854 1.02319,-1.906854 z"
         style="font-style:normal;font-variant:normal;font-weight:normal;font-stretch:normal;font-family:lazer84;-inkscape-font-specification:lazer84;fill:#ffffff;fill-opacity:1;stroke-width:0.264583"
         id="path883" />
      <path
         d="m 114.14338,78.113024 h 0.22737 q 0.7183,0 1.17305,0.764808 l 0.0413,0.180867 q 0,0.377237 -0.99219,2.258253 -1.03869,2.041213 -1.03869,3.741362 v 0.134358 q 1.16788,-0.759641 1.89652,-1.85001 1.71565,-2.185906 2.03087,-3.15742 l 0.26872,-0.583942 q 0.13436,0 0.13436,-0.134358 l 0.0465,-0.04651 h 0.093 V 79.6013 h 0.0414 q 0.12402,-0.764809 0.22737,-0.764809 h 0.0465 v 0.180867 h 0.0413 v -0.361734 h 0.093 v 0.134359 q 0.16019,-0.08268 0.40307,-0.676959 h 0.0465 q 0.44959,0.418577 0.44959,1.307409 0,2.976553 -3.82922,6.764424 -0.7338,0.454751 -1.66914,0.454751 -1.73115,0 -2.30476,-1.266069 l -0.0879,-0.542601 V 84.60873 q 0,-1.777663 0.72347,-3.15742 l 1.17305,-2.754345 q 0.3824,-0.583941 0.76481,-0.583941 z"
         style="font-style:normal;font-variant:normal;font-weight:normal;font-stretch:normal;font-family:lazer84;-inkscape-font-specification:lazer84;fill:#ffffff;fill-opacity:1;stroke-width:0.264583"
         id="path885" />
      <path
         d="m 125.74987,77.885648 h 0.0982 q 0.21704,0 0.57878,0.335896 l 0.0465,0.04651 h 0.0465 l -0.0465,0.191203 0.0465,0.578774 q -0.0775,0.769976 -0.5271,0.769976 h -0.28938 q -1.88102,0 -4.70771,1.297074 v 0.09302 h 0.0465 q 3.49331,0.289387 3.84471,0.961178 0.3359,0.19637 0.3359,0.676959 -0.12919,1.581294 -0.38241,1.581294 -1.0852,0.811318 -2.40294,1.297075 -1.9792,0.676959 -5.43118,1.539952 l -0.0465,-0.04651 v -0.05168 l 0.3359,-0.139526 v -0.09818 l -0.5271,0.09818 v -0.05168 q 0,-0.10852 0.23771,-0.144693 v -0.09302 h -0.14469 v -0.09819 h 0.0982 v -0.04651 l -0.28938,-0.09819 0.0465,-0.04651 v -0.144693 q -0.1912,0 -0.1912,-0.144694 l -0.0465,0.04651 h -0.0982 v -0.04651 l 0.0465,-0.04651 v -0.04651 h -0.093 q 0,-0.09819 -0.14469,-0.09819 v -0.04651 q 0,-0.242878 3.89122,-1.34875 2.58381,-0.894 2.98172,-1.19889 -4.08759,-0.268716 -4.08759,-0.868161 -0.48059,-0.310058 -0.48059,-0.909502 0,-0.552936 0.57877,-1.297075 3.51399,-2.402946 6.67658,-2.402946 z m -8.59893,8.552422 v 0.04651 h 0.0982 v -0.04651 z"
         style="font-style:normal;font-variant:normal;font-weight:normal;font-stretch:normal;font-family:lazer84;-inkscape-font-specification:lazer84;fill:#ffffff;fill-opacity:1;stroke-width:0.264583"
         id="path887" />
      <path
         d="m 127.54303,78.38174 h 0.28422 q 0.85783,0 1.33325,0.759641 v 0.191202 q 0,0.134359 -0.90434,1.617468 l -2.09289,4.330471 q -0.40824,0.749306 -0.5736,0.857826 l -0.0465,-0.05168 h -0.0465 l -0.0982,0.23771 h -0.093 l 0.093,-0.330728 -0.52194,0.857826 h -0.0465 l -0.0465,-0.04651 v -0.05168 l 0.0465,-0.04651 v -0.09302 h -0.0465 l -0.1912,0.428913 h -0.0982 v -0.05168 l 0.0982,-0.23771 -0.76481,0.620115 -0.13953,-0.09302 0.0465,-0.05168 v -0.139526 l -0.14469,0.09302 -0.093,-0.09302 q 0,-0.625283 3.42614,-8.139012 0.2067,-0.568439 0.62011,-0.568439 z m -0.91467,6.190817 v 0.07751 h 0.0413 v -0.07751 z"
         style="font-style:normal;font-variant:normal;font-weight:normal;font-stretch:normal;font-family:lazer84;-inkscape-font-specification:lazer84;fill:#ffffff;fill-opacity:1;stroke-width:0.264583"
         id="path889" />
      <path
         d="m 134.43148,78.412746 h 0.3359 q 1.25056,0 1.78799,0.723468 v 0.43408 q 0,0.919838 -0.67695,0.919838 -0.49093,-0.144694 -1.05937,-0.144694 -3.54499,0 -4.87307,3.374461 l -0.0982,0.485757 v 0.144693 q 0,0.728635 0.96635,0.91467 0.60461,0.144694 1.59163,0.144694 h 0.86816 v 0.09818 h -0.19637 v 0.04651 q 0.11369,0 0.24288,0.191202 h 0.0465 v 0.144694 l -0.5271,0.05168 v 0.04651 h 0.093 l -0.093,0.289387 h 0.093 v 0.09819 h -0.093 v 0.04651 q 0.1912,0 0.1912,0.191203 h 0.0982 l -0.0517,-0.04651 v -0.04651 l 0.0517,-0.05168 h 0.28939 v 0.09819 l 0.0465,0.04651 -0.0465,0.05168 h -0.1447 v 0.04651 l 0.093,0.09819 h 0.14469 l -0.0465,-0.05168 v -0.04651 l 0.1447,-0.04651 0.14469,0.04651 q 0,0.434081 -3.37446,0.434081 -2.12906,0 -2.99206,-2.072218 v -0.630451 q 0,-2.237582 3.03857,-4.774887 1.79317,-1.255733 4.00491,-1.255733 z m -1.06453,7.188169 h 0.28939 v 0.09819 h -0.28939 z"
         style="font-style:normal;font-variant:normal;font-weight:normal;font-stretch:normal;font-family:lazer84;-inkscape-font-specification:lazer84;fill:#ffffff;fill-opacity:1;stroke-width:0.264583"
         id="path891" />
      <path
         d="m 141.74884,78.433416 h 0.55811 q 2.59931,0 3.35895,1.493445 0.23255,0.289387 0.23255,0.604612 v 0.04651 q 0,0.780311 -2.14457,1.63297 v 0.04651 q 1.02319,0.899167 1.02319,1.348751 v 0.279052 q 0,1.13171 -7.03831,3.358957 l -0.97668,0.232543 -0.0517,-0.04651 0.0517,-0.04651 V 87.24422 q -0.23771,0 -0.23771,-0.09302 l -0.0465,-0.186035 0.47026,-0.186034 v -0.04651 h -0.0465 l -0.60978,0.09302 v -0.09302 q 0.32556,-0.04651 0.32556,-0.139526 h -0.0465 l -0.27905,0.09302 -0.0465,-0.04651 h -0.0465 l -0.27905,0.04651 h -0.0465 v -0.04651 l 0.093,-0.139526 v -0.04651 h -0.0465 l -0.23254,0.04651 -0.0465,-0.04651 v -0.04651 q 0.43925,-0.377237 0.74414,-0.377237 l -0.093,-0.465087 q 0.39274,-0.961178 3.26594,-5.219303 -0.8785,0 -1.16788,-0.465086 -0.18087,-0.05168 -0.37207,-0.656289 0,-0.563271 2.09805,-0.697629 z m -0.23254,2.702669 q 1.40559,-0.485757 2.37711,-0.976681 0,-0.139526 -1.07487,-0.139526 h -0.65112 q -0.65112,0.950843 -0.65112,1.116207 z m -2.37711,3.777535 v 0.04651 q 2.38744,-0.795815 3.4003,-1.586461 h -0.88366 q -1.72599,0 -1.72599,0.32556 z"
         style="font-style:normal;font-variant:normal;font-weight:normal;font-stretch:normal;font-family:lazer84;-inkscape-font-specification:lazer84;fill:#ffffff;fill-opacity:1;stroke-width:0.264583"
         id="path893" />
      <path
         d="m 151.20043,78.102688 h 0.0517 q 0.49093,0 0.99219,0.945676 l 0.0517,0.05168 v 0.232543 q 0,0.222208 -0.74413,0.382405 v 0.04651 q 1.14204,1.41593 1.14204,2.650993 V 82.6502 q 0,3.059235 -2.63549,3.932564 -0.89917,0.237711 -1.48828,0.237711 h -0.54776 q -2.3151,0 -3.33312,-2.366773 -0.1447,-0.03101 -0.19637,-0.852659 v -0.335896 q 0,-2.294426 3.32795,-4.165107 2.10322,-0.997352 3.37963,-0.997352 z m -4.86791,5.591372 v 0.04651 q 0,0.821653 1.04386,0.945676 h 0.39791 q 1.60713,0 2.98172,-1.844843 0.21187,-0.485757 0.29456,-1.281571 -0.0465,-0.661457 -0.1447,-0.80615 l 0.0465,-0.139526 q -0.13436,-0.713133 -0.19637,-0.713133 -1.46244,0.19637 -3.37963,1.896519 -1.04386,1.012855 -1.04386,1.896519 z"
         style="font-style:normal;font-variant:normal;font-weight:normal;font-stretch:normal;font-family:lazer84;-inkscape-font-specification:lazer84;fill:#ffffff;fill-opacity:1;stroke-width:0.264583"
         id="path895" />
      <path
         d="m 159.24126,78.216376 h 0.0465 q 0.33589,0.01033 0.33589,0.09302 l 0.0517,-0.04651 h 0.0465 q 0.81131,0.527098 0.81131,0.909502 -0.0258,0.149861 -1.72082,1.4366 l -2.3461,2.201409 q 1.2454,2.315097 1.2454,3.307281 0,0.258382 -0.19637,0.764809 h -0.093 l -0.33589,0.04651 -0.0465,-0.04651 v -0.04651 l -0.57361,0.191202 -0.0517,-0.237711 -0.0465,0.04651 h -0.0465 q -0.062,0 -0.57361,-1.483109 l -0.7183,-1.297075 q -0.33589,0.289387 -0.33589,0.382405 l -0.38758,0.144693 0.0517,0.05168 v 0.04651 l -1.53478,1.529618 q -0.31523,0.294554 -0.7183,0.91467 l -0.3359,0.09302 q -0.28422,-0.09819 -0.28422,-0.191202 l -0.0517,0.04651 h -0.093 l -0.19121,-0.144693 -0.0517,0.05168 q -0.41341,-0.258381 -0.62012,-0.527098 V 86.30888 q 0,-0.578775 3.78271,-3.880888 l 0.0465,-0.04651 v -0.04651 q -0.23771,-0.790647 -0.47542,-2.542473 0,-0.925005 0.5271,-1.4366 h 0.5271 q 0.68729,0 1.05419,0.578774 v 0.28422 l -0.0982,0.671791 0.0465,0.04651 -0.0465,0.242878 0.0465,0.28422 h -0.0465 l 0.0982,0.382404 2.72851,-2.43912 q 0.32556,-0.191202 0.57361,-0.191202 z"
         style="font-style:normal;font-variant:normal;font-weight:normal;font-stretch:normal;font-family:lazer84;-inkscape-font-specification:lazer84;fill:#ffffff;fill-opacity:1;stroke-width:0.264583"
         id="path897" />
    </g>
  </g>
</svg>
