<?xml version="1.0" encoding="UTF-8" standalone="no"?>
<svg
   width="72.872887"
   height="17.997747"
   viewBox="0 0 19.280808 4.7624039"
   version="1.1"
   id="svg9"
   sodipodi:docname="title.svg"
   inkscape:version="1.3.2 (091e20ef0f, 2023-11-25, custom)"
   xmlns:inkscape="http://www.inkscape.org/namespaces/inkscape"
   xmlns:sodipodi="http://sodipodi.sourceforge.net/DTD/sodipodi-0.dtd"
   xmlns="http://www.w3.org/2000/svg"
   xmlns:svg="http://www.w3.org/2000/svg">
  <defs
     id="defs9" />
  <sodipodi:namedview
     id="namedview9"
     pagecolor="#ffffff"
     bordercolor="#000000"
     borderopacity="0.25"
     inkscape:showpageshadow="2"
     inkscape:pageopacity="0.0"
     inkscape:pagecheckerboard="0"
     inkscape:deskcolor="#d1d1d1"
     inkscape:zoom="6.6699147"
     inkscape:cx="103.59953"
     inkscape:cy="8.6207998"
     inkscape:window-width="2560"
     inkscape:window-height="1011"
     inkscape:window-x="0"
     inkscape:window-y="0"
     inkscape:window-maximized="1"
     inkscape:current-layer="svg9" />
  <g
     aria-label="Tauon Music Box"
     style="font-style:normal;font-weight:400;font-size:10.5833px;line-height:1.25;font-family:sans-serif;letter-spacing:0;word-spacing:0;fill:#000000;fill-opacity:1;stroke:none;stroke-width:0.264583"
     id="g9"
     transform="translate(-0.00217334,-7.6e-5)">
    <path
       d="m 67.752,77.85 0.925,0.046 h 0.925 q 0.268,0 0.392,0.248 l -0.051,0.047 q 0.242,0.015 0.242,0.144 v 0.052 h -0.532 v 0.046 h 0.191 v 0.099 h -0.093 l 0.047,0.051 -0.047,0.047 v 0.098 l 0.243,0.047 v 0.051 l -0.051,0.047 v 0.051 q 0.294,0 0.294,0.388 0.197,0.026 0.197,0.145 v 0.098 l -2.879,0.34 q -0.367,0 -0.584,0.926 -2.573,5.012 -3.075,6.387 -0.294,0.295 -0.485,0.295 l -0.197,-0.197 q -0.289,0 -0.289,-0.243 l -0.052,0.052 h -0.046 q -0.01,-0.124 -0.486,-0.44 l -0.15,-0.247 q 0,-0.982 2.341,-5.214 l 0.393,-0.925 -1.809,0.289 q -1.023,0 -1.364,-0.925 l -0.145,-0.584 v -0.098 q 0,-0.31 0.388,-0.584 h 0.635 q 1.53,0 5.122,-0.537 m 4.425,0.47 q 1.245,0 1.525,0.739 0.16,0.656 0.387,2.604 l 0.047,0.047 q 0.025,0.305 0.129,0.305 l 1.39,-0.176 v 0.088 h 0.046 l 0.693,-0.042 v 0.083 l -0.305,0.088 v 0.046 h 0.305 l 0.305,-0.046 v 0.088 q -0.445,0.175 -0.693,0.175 v 0.088 l 0.217,-0.046 q 0.3,0.088 0.3,0.176 l 0.222,-0.047 q 0.868,0.026 0.868,0.176 l -0.046,0.041 0.305,0.088 v 0.088 q -0.59,0.305 -2.434,0.522 l -0.78,0.129 q 0.563,2.212 0.563,3.002 v 0.17 l -0.13,0.135 h -0.046 q -0.145,0 -0.3,-0.134 v 0.134 h -0.087 v -0.088 l -0.135,0.088 -0.17,-0.134 -0.434,0.175 -0.352,-0.346 q -0.217,-0.351 -0.65,-2.568 h -0.042 q -2.74,0.754 -2.74,1.178 -0.175,0.109 -1.043,1.344 -0.3,0.351 -0.48,0.351 l -0.088,-0.217 -0.042,0.041 H 68.441 Q 68.177,86.51 68.177,86.319 l -0.041,0.042 h -0.088 v -0.088 q -0.18,0 -0.346,-0.259 -0.176,0 -0.176,-0.088 v -0.304 q 0,-0.486 1.044,-1.608 0.444,-0.739 1.437,-2.046 l 1.478,-2.604 0.3,-0.874 q 0.232,-0.17 0.392,-0.17 m -0.346,4.217 v 0.04 q 0.739,-0.19 0.739,-0.258 l -0.13,-0.697 q -0.118,0.052 -0.61,0.915 m 4.04,-0.74 h 0.089 v 0.088 h -0.088 z m 0.047,0.305 v 0.042 h 0.088 v -0.042 z"
       style="font-style:normal;font-variant:normal;font-weight:400;font-stretch:normal;font-family:lazer84;-inkscape-font-specification:lazer84;fill:#ffffff;fill-opacity:1;stroke-width:0.264583"
       transform="matrix(0.49336,0,0,0.49336,-30.395,-38.408)"
       id="path1" />
    <path
       d="m 78.1,78.113 h 0.227 q 0.718,0 1.173,0.765 l 0.04,0.18 q 0,0.378 -0.991,2.259 -1.039,2.041 -1.039,3.741 v 0.135 q 1.168,-0.76 1.897,-1.85 1.715,-2.186 2.03,-3.158 l 0.27,-0.584 q 0.134,0 0.134,-0.134 l 0.046,-0.047 h 0.093 v 0.181 h 0.041 q 0.124,-0.765 0.228,-0.765 h 0.046 v 0.181 h 0.042 v -0.361 h 0.093 v 0.134 q 0.16,-0.083 0.403,-0.677 h 0.046 q 0.45,0.419 0.45,1.307 0,2.977 -3.83,6.765 -0.733,0.455 -1.669,0.455 -1.73,0 -2.304,-1.266 l -0.088,-0.543 v -0.222 q 0,-1.778 0.723,-3.158 l 1.173,-2.754 q 0.383,-0.584 0.765,-0.584"
       style="font-style:normal;font-variant:normal;font-weight:400;font-stretch:normal;font-family:lazer84;-inkscape-font-specification:lazer84;fill:#ffffff;fill-opacity:1;stroke-width:0.264583"
       transform="matrix(0.49336,0,0,0.49336,-30.395,-38.408)"
       id="path2" />
    <path
       d="m 90,78.103 h 0.052 q 0.49,0 0.992,0.945 l 0.052,0.052 v 0.233 q 0,0.222 -0.744,0.382 v 0.047 q 1.142,1.415 1.142,2.65 v 0.238 q 0,3.06 -2.636,3.933 -0.899,0.237 -1.488,0.237 h -0.548 q -2.315,0 -3.333,-2.366 -0.145,-0.031 -0.196,-0.853 v -0.336 q 0,-2.294 3.328,-4.165 2.103,-0.997 3.38,-0.997 m -4.868,5.591 v 0.047 q 0,0.821 1.044,0.945 h 0.398 q 1.607,0 2.982,-1.845 0.212,-0.485 0.294,-1.281 -0.046,-0.662 -0.144,-0.806 l 0.046,-0.14 q -0.134,-0.713 -0.196,-0.713 -1.463,0.196 -3.38,1.897 -1.044,1.012 -1.044,1.896"
       style="font-style:normal;font-variant:normal;font-weight:400;font-stretch:normal;font-family:lazer84;-inkscape-font-specification:lazer84;fill:#ffffff;fill-opacity:1;stroke-width:0.264583"
       transform="matrix(0.49336,0,0,0.49336,-30.395,-38.408)"
       id="path3" />
    <path
       d="m 99.343,78.082 h 0.326 c 0.41333,0 0.75433,0.186 1.023,0.558 v 0.14 l -1.767,4.552 c -0.434,0.802667 -0.868333,1.934333 -1.303,3.395 l -0.14,0.14 h -0.139 l -0.186,-0.14 -0.046,0.047 h -0.233 l -0.232,-0.14 -0.465,0.047 -0.372,-0.419 v -0.325 c 0,-0.138 0.108333,-0.463667 0.325,-0.977 L 94.93,82.082 94.558,80.966 h -0.046 l -1.86,3.901 c -0.217333,0.444667 -0.372667,0.956333 -0.466,1.535 l 0.047,0.046 v 0.047 c -0.052,0.248 -0.114,0.372 -0.186,0.372 h -0.14 l -0.465,-0.28 h -0.093 l -0.186,0.047 -0.14,-0.046 -0.093,0.093 -0.046,-0.047 h -0.047 l -0.046,0.047 -0.419,-0.558 v -0.186 c 0,-0.558 0.728667,-2.261667 2.186,-5.111 l 1.116,-2.372 c 0.169333,-0.134 0.695,-0.227 1.577,-0.279 0.21,0 0.426667,0.155 0.65,0.465 v 0.047 c 0,0.878 0.403333,2.178333 1.21,3.901 0.434,-0.744 0.914667,-2.013333 1.442,-3.808 0.106667,-0.403333 0.292667,-0.605 0.558,-0.605 0,-0.05533 0.07733,-0.08633 0.232,-0.093"
       style="font-style:normal;font-variant:normal;font-weight:400;font-stretch:normal;font-family:lazer84;-inkscape-font-specification:lazer84;fill:#ffffff;fill-opacity:1;stroke-width:0.264583"
       transform="matrix(0.49336,0,0,0.49336,-30.395,-38.408)"
       id="path4"
       sodipodi:nodetypes="csccccccccccccsccccccccsccccccccccsccccscccc" />
  </g>
</svg>
