<svg xmlns="http://www.w3.org/2000/svg" width="184.465" height="18" viewBox="0 0 48.806 4.763"><g aria-label="Tauon Music Box" style="font-style:normal;font-weight:400;font-size:10.5833px;line-height:1.25;font-family:sans-serif;letter-spacing:0;word-spacing:0;fill:#000;fill-opacity:1;stroke:none;stroke-width:.264583"><path d="m67.752 77.85.925.046h.925q.268 0 .392.248l-.051.047q.242.015.242.144v.052h-.532v.046h.191v.099h-.093l.047.051-.047.047v.098l.243.047v.051l-.051.047v.051q.294 0 .294.388.197.026.197.145v.098l-2.879.34q-.367 0-.584.926-2.573 5.012-3.075 6.387-.294.295-.485.295l-.197-.197q-.289 0-.289-.243l-.052.052h-.046q-.01-.124-.486-.44l-.15-.247q0-.982 2.341-5.214l.393-.925-1.809.289q-1.023 0-1.364-.925l-.145-.584v-.098q0-.31.388-.584h.635q1.53 0 5.122-.537m4.425.47q1.245 0 1.525.739.16.656.387 2.604l.047.047q.025.305.129.305l1.39-.176v.088h.046l.693-.042v.083l-.305.088v.046h.305l.305-.046v.088q-.445.175-.693.175v.088l.217-.046q.3.088.3.176l.222-.047q.868.026.868.176l-.046.041.305.088v.088q-.59.305-2.434.522l-.78.129q.563 2.212.563 3.002v.17l-.13.135h-.046q-.145 0-.3-.134v.134h-.087v-.088l-.135.088-.17-.134-.434.175-.352-.346q-.217-.351-.65-2.568h-.042q-2.74.754-2.74 1.178-.175.109-1.043 1.344-.3.351-.48.351l-.088-.217-.042.041h-.041q-.264-.155-.264-.346l-.041.042h-.088v-.088q-.18 0-.346-.259-.176 0-.176-.088v-.304q0-.486 1.044-1.608.444-.739 1.437-2.046l1.478-2.604.3-.874q.232-.17.392-.17m-.346 4.217v.04q.739-.19.739-.258l-.13-.697q-.118.052-.61.915m4.04-.74h.089v.088h-.088zm.047.305v.042h.088v-.042z" style="font-style:normal;font-variant:normal;font-weight:400;font-stretch:normal;font-family:lazer84;-inkscape-font-specification:lazer84;fill:#fff;fill-opacity:1;stroke-width:.264583" transform="translate(-30.395 -38.408)scale(.49336)"/><path d="M78.1 78.113h.227q.718 0 1.173.765l.04.18q0 .378-.991 2.259-1.039 2.041-1.039 3.741v.135q1.168-.76 1.897-1.85 1.715-2.186 2.03-3.158l.27-.584q.134 0 .134-.134l.046-.047h.093v.181h.041q.124-.765.228-.765h.046v.181h.042v-.361h.093v.134q.16-.083.403-.677h.046q.45.419.45 1.307 0 2.977-3.83 6.765-.733.455-1.669.455-1.73 0-2.304-1.266l-.088-.543v-.222q0-1.778.723-3.158l1.173-2.754q.383-.584.765-.584" style="font-style:normal;font-variant:normal;font-weight:400;font-stretch:normal;font-family:lazer84;-inkscape-font-specification:lazer84;fill:#fff;fill-opacity:1;stroke-width:.264583" transform="translate(-30.395 -38.408)scale(.49336)"/><path d="M90 78.103h.052q.49 0 .992.945l.052.052v.233q0 .222-.744.382v.047q1.142 1.415 1.142 2.65v.238q0 3.06-2.636 3.933-.899.237-1.488.237h-.548q-2.315 0-3.333-2.366-.145-.031-.196-.853v-.336q0-2.294 3.328-4.165 2.103-.997 3.38-.997m-4.868 5.591v.047q0 .821 1.044.945h.398q1.607 0 2.982-1.845.212-.485.294-1.281-.046-.662-.144-.806l.046-.14q-.134-.713-.196-.713-1.463.196-3.38 1.897-1.044 1.012-1.044 1.896" style="font-style:normal;font-variant:normal;font-weight:400;font-stretch:normal;font-family:lazer84;-inkscape-font-specification:lazer84;fill:#fff;fill-opacity:1;stroke-width:.264583" transform="translate(-30.395 -38.408)scale(.49336)"/><path d="M99.343 78.082h.326q.62 0 1.023.558v.14l-1.767 4.552q-.651 1.204-1.303 3.395l-.14.14h-.139l-.186-.14-.046.047h-.233l-.232-.14-.465.047-.372-.419v-.325q0-.207.325-.977l-1.204-2.878-.372-1.116h-.046l-1.86 3.901q-.326.667-.466 1.535l.047.046v.047q-.078.372-.186.372h-.14l-.465-.28h-.093l-.186.047-.14-.046-.093.093-.046-.047h-.047l-.046.047-.419-.558v-.186q0-.837 2.186-5.111l1.116-2.372q.254-.201 1.577-.279.315 0 .65.465v.047q0 1.317 1.21 3.901.651-1.116 1.442-3.808.16-.605.558-.605 0-.083.232-.093m6.367-.036h.232q.533 0 .93.697l-.092 1.86q0 .786.232 1.262.098-.005.935-.936.155-.046 1.86-1.813.642-.884 1.308-.884l.326-.047q.454.104.511.28.104 0 .419.371v.094q0 .47-1.354 3.446-.46 1.117-.605 1.117l.047.046v.047l-.605 1.209q-.082.005-.744 1.54l-.325.418h-.326v-.093l-.186.093q0-.103-.326-.186l-.093.093q-.129-.015-.186-.232-.186 0-.186-.093v-.326q0-.904 1.396-3.493-.73.672-1.396 1.674-.155 0-.423.28h-.047q-.496-.347-.93-.42-.47-.32-.837-1.906h-.047q-2.03 4.661-2.237 4.842h-.093l-.233-.14-.14.047-.046-.047-.046.047-.093-.186-.093.093-.047-.047-.418.093q-.104-.253-.28-.279v-.186q0-1.116 2.657-6.335.625-1.907 1.023-1.907zm8.433.067h.228q.718 0 1.173.765l.041.18q0 .378-.992 2.259-1.039 2.041-1.039 3.741v.135q1.168-.76 1.897-1.85 1.715-2.186 2.03-3.158l.27-.584q.134 0 .134-.134l.046-.047h.093v.181h.042q.124-.765.227-.765h.046v.181h.042v-.361h.093v.134q.16-.083.403-.677h.046q.45.419.45 1.307 0 2.977-3.83 6.765-.733.455-1.668.455-1.732 0-2.305-1.266l-.088-.543v-.222q0-1.778.723-3.158l1.173-2.754q.383-.584.765-.584" style="font-style:normal;font-variant:normal;font-weight:400;font-stretch:normal;font-family:lazer84;-inkscape-font-specification:lazer84;fill:#fff;fill-opacity:1;stroke-width:.264583" transform="translate(-30.395 -38.408)scale(.49336)"/><path d="M125.75 77.886h.098q.217 0 .579.336l.046.046h.047l-.047.191.047.579q-.078.77-.527.77h-.29q-1.88 0-4.707 1.297v.093h.046q3.493.29 3.845.961.336.197.336.677-.13 1.582-.383 1.582-1.085.81-2.403 1.297-1.979.677-5.43 1.54l-.047-.047v-.052l.336-.14v-.097l-.527.098v-.052q0-.108.237-.145v-.093h-.144v-.098h.098v-.046l-.29-.098.047-.047v-.145q-.191 0-.191-.144l-.047.046h-.098v-.046l.046-.047v-.046h-.093q0-.099-.144-.099v-.046q0-.243 3.891-1.349 2.584-.894 2.982-1.199-4.088-.268-4.088-.868-.48-.31-.48-.91 0-.552.578-1.296 3.514-2.403 6.677-2.403m-8.6 8.552v.047h.1v-.047z" style="font-style:normal;font-variant:normal;font-weight:400;font-stretch:normal;font-family:lazer84;-inkscape-font-specification:lazer84;fill:#fff;fill-opacity:1;stroke-width:.264583" transform="translate(-30.395 -38.408)scale(.49336)"/><path d="M127.543 78.382h.284q.858 0 1.334.76v.19q0 .135-.905 1.618l-2.093 4.33q-.408.75-.573.858l-.047-.051h-.046l-.099.237h-.093l.093-.33-.521.857h-.047l-.046-.046v-.052l.046-.046v-.093h-.046l-.192.429h-.098v-.052l.098-.238-.764.62-.14-.093.046-.051v-.14l-.144.093-.093-.093q0-.625 3.426-8.139.207-.568.62-.568m-.915 6.19v.078h.042v-.077z" style="font-style:normal;font-variant:normal;font-weight:400;font-stretch:normal;font-family:lazer84;-inkscape-font-specification:lazer84;fill:#fff;fill-opacity:1;stroke-width:.264583" transform="translate(-30.395 -38.408)scale(.49336)"/><path d="M134.431 78.413h.336q1.25 0 1.788.723v.434q0 .92-.677.92-.49-.145-1.059-.145-3.545 0-4.873 3.375l-.098.486v.144q0 .729.966.915.605.145 1.592.145h.868v.098h-.196v.046q.113 0 .242.192h.047v.144l-.527.052v.046h.093l-.093.29h.093v.098h-.093v.047q.191 0 .191.19h.098l-.051-.046v-.046l.051-.052h.29v.098l.046.047-.046.051h-.145v.047l.093.098h.145l-.047-.052v-.046l.145-.047.144.047q0 .434-3.374.434-2.129 0-2.992-2.072v-.63q0-2.238 3.039-4.776 1.793-1.255 4.004-1.255m-1.064 7.188h.29v.098h-.29zm8.382-7.168h.558q2.6 0 3.359 1.494.232.29.232.604v.047q0 .78-2.144 1.633v.046q1.023.9 1.023 1.35v.278q0 1.132-7.038 3.36l-.977.232-.052-.047.052-.046v-.14q-.238 0-.238-.093l-.046-.186.47-.186v-.046h-.046l-.61.093v-.093q.325-.047.325-.14h-.046l-.28.093-.046-.046h-.046l-.28.046h-.046v-.046l.093-.14v-.046h-.046l-.233.046-.046-.046v-.047q.439-.377.744-.377l-.093-.465q.393-.961 3.266-5.22-.879 0-1.168-.465-.18-.051-.372-.656 0-.563 2.098-.698zm-.233 2.703q1.406-.486 2.377-.977 0-.14-1.074-.14h-.652q-.65.952-.65 1.117m-2.377 3.778v.046q2.388-.796 3.4-1.586h-.883q-1.726 0-1.726.325z" style="font-style:normal;font-variant:normal;font-weight:400;font-stretch:normal;font-family:lazer84;-inkscape-font-specification:lazer84;fill:#fff;fill-opacity:1;stroke-width:.264583" transform="translate(-30.395 -38.408)scale(.49336)"/><path d="M151.2 78.103h.052q.491 0 .992.945l.052.052v.233q0 .222-.744.382v.047q1.142 1.415 1.142 2.65v.238q0 3.06-2.636 3.933-.899.237-1.488.237h-.548q-2.315 0-3.333-2.366-.144-.031-.196-.853v-.336q0-2.294 3.328-4.165 2.103-.997 3.38-.997m-4.867 5.591v.047q0 .821 1.043.945h.398q1.607 0 2.982-1.845.212-.485.295-1.281-.047-.662-.145-.806l.046-.14q-.134-.713-.196-.713-1.462.196-3.38 1.897-1.043 1.012-1.043 1.896" style="font-style:normal;font-variant:normal;font-weight:400;font-stretch:normal;font-family:lazer84;-inkscape-font-specification:lazer84;fill:#fff;fill-opacity:1;stroke-width:.264583" transform="translate(-30.395 -38.408)scale(.49336)"/><path d="M159.241 78.216h.047q.336.01.336.093l.051-.046h.047q.811.527.811.91-.026.15-1.72 1.436l-2.347 2.201q1.246 2.315 1.246 3.308 0 .258-.197.764h-.093l-.336.047-.046-.047v-.046l-.574.191-.051-.238-.047.047h-.046q-.062 0-.574-1.483l-.718-1.297q-.336.29-.336.382l-.388.145.052.052v.046l-1.535 1.53q-.315.294-.718.914l-.336.093q-.284-.098-.284-.19l-.052.046h-.093l-.191-.145-.052.052q-.413-.259-.62-.527v-.145q0-.579 3.783-3.881l.046-.047v-.046q-.238-.79-.475-2.543 0-.925.527-1.436h.527q.687 0 1.054.579v.284l-.098.672.046.046-.046.243.046.284h-.046l.098.383 2.729-2.44q.325-.19.573-.19" style="font-style:normal;font-variant:normal;font-weight:400;font-stretch:normal;font-family:lazer84;-inkscape-font-specification:lazer84;fill:#fff;fill-opacity:1;stroke-width:.264583" transform="translate(-30.395 -38.408)scale(.49336)"/></g></svg>