<svg xmlns="http://www.w3.org/2000/svg" xmlns:xlink="http://www.w3.org/1999/xlink" width="110" height="110" viewBox="0 0 29.104 29.104"><defs><linearGradient xlink:href="#a" id="c" x1="71.312" x2="36.902" y1="14.293" y2="78.063" gradientTransform="matrix(1.09803 0 0 1.09815 -28.98 155.248)" gradientUnits="userSpaceOnUse"/><linearGradient id="a"><stop offset="0" style="stop-color:#f43cdd;stop-opacity:.99607843"/><stop offset="1" style="stop-color:#d0c068;stop-opacity:1"/></linearGradient><linearGradient xlink:href="#b" id="d" x1="69.821" x2="55.547" y1="16.022" y2="36.762" gradientTransform="matrix(1.09803 0 0 1.09815 -28.98 155.248)" gradientUnits="userSpaceOnUse"/><linearGradient id="b"><stop offset="0" style="stop-color:silver;stop-opacity:.99607843"/><stop offset="1" style="stop-color:#858585;stop-opacity:1"/></linearGradient></defs><g transform="translate(-22.869 -174.74)"><ellipse cx="37.418" cy="189.29" rx="13.383" ry="13.385" style="display:inline;fill:url(#c);fill-opacity:1;stroke:none;stroke-width:2.92119;stroke-linecap:butt;stroke-linejoin:miter;stroke-miterlimit:9.5;stroke-dasharray:none;stroke-opacity:1;font-variation-settings:normal;opacity:1;vector-effect:none;stroke-dashoffset:0;-inkscape-stroke:none;stop-color:#000;stop-opacity:1"/><ellipse cx="37.418" cy="189.29" rx="13.383" ry="13.385" style="display:inline;fill:url(#d);fill-opacity:1;stroke:none;stroke-width:2.92119;stroke-linecap:butt;stroke-linejoin:miter;stroke-miterlimit:9.5;stroke-dasharray:none;stroke-opacity:1"/><circle cx="37.418" cy="189.29" r="4.643" style="display:inline;fill:#313131;fill-opacity:1;stroke:none;stroke-width:.94436;stroke-linecap:butt;stroke-linejoin:miter;stroke-miterlimit:9.5;stroke-dasharray:none;stroke-opacity:1"/><circle cx="37.418" cy="189.29" r=".78" style="display:inline;fill:#fff;fill-opacity:1;stroke:none;stroke-width:2.92119;stroke-linecap:butt;stroke-linejoin:miter;stroke-miterlimit:9.5;stroke-dasharray:none;stroke-opacity:1"/><path d="M46.757 189.437a9.34 9.34 0 0 1-5.377 8.458" style="display:inline;fill:none;fill-opacity:1;stroke:#fff;stroke-width:5.32974;stroke-linecap:butt;stroke-linejoin:miter;stroke-miterlimit:12.4;stroke-dasharray:none;stroke-opacity:.376289"/><path d="M-28.02-189.26a9.34 9.34 0 0 1-5.377 8.458" style="display:inline;fill:none;fill-opacity:1;stroke:#fff;stroke-width:5.32974;stroke-linecap:butt;stroke-linejoin:miter;stroke-miterlimit:12.4;stroke-dasharray:none;stroke-opacity:.376289" transform="scale(-1)"/><path d="M37.423 175.913a13.383 13.385 0 0 0-13.384 13.385 13.383 13.385 0 0 0 .008.215 13.383 13.385 0 0 1 13.376-13.233 13.383 13.385 0 0 1 13.376 13.17 13.383 13.385 0 0 0 .008-.152 13.383 13.385 0 0 0-13.384-13.385" style="display:inline;opacity:.187;fill:#fef2fd;fill-opacity:1;stroke:none;stroke-width:2.92119;stroke-linecap:butt;stroke-linejoin:miter;stroke-miterlimit:9.5;stroke-dasharray:none;stroke-opacity:1"/><path d="M50.793 189.054a13.383 13.385 0 0 1-13.375 13.215 13.383 13.385 0 0 1-13.374-13.146 13.383 13.385 0 0 0-.009.17 13.383 13.385 0 0 0 13.383 13.384 13.383 13.385 0 0 0 13.383-13.384 13.383 13.385 0 0 0-.008-.24" style="display:inline;fill:#000;fill-opacity:.0912281;stroke:none;stroke-width:2.92119;stroke-linecap:butt;stroke-linejoin:miter;stroke-miterlimit:9.5;stroke-dasharray:none;stroke-opacity:1"/><g style="opacity:1"><path d="M41.777 175.283c-.243-.065-.495-.273-1.127.092-.631.365-.577.688-.642.932a5 5 0 0 0-.13.754 21 21 0 0 0-.093 1.812c-.021 1.282.016 2.648.016 2.82 0 .173-.037 1.538-.016 2.82.011.642.035 1.276.094 1.813.03.269.064.51.129.754s.011.567.642.932c.632.364.884.157 1.127.092.244-.066.472-.157.72-.266a21 21 0 0 0 1.616-.826c1.122-.623 2.284-1.338 2.434-1.424s1.35-.737 2.45-1.397c.549-.33 1.088-.667 1.524-.986.219-.16.41-.312.588-.49.179-.178.487-.293.487-1.022s-.308-.845-.487-1.023a5 5 0 0 0-.588-.488c-.436-.32-.975-.657-1.525-.987-1.1-.66-2.3-1.31-2.45-1.396-.149-.086-1.311-.802-2.433-1.424a21 21 0 0 0-1.617-.826c-.247-.11-.475-.2-.719-.266m.19 2.375c.341.165.706.343 1.117.57 1.063.59 2.083 1.223 2.402 1.407.32.184 1.378.753 2.42 1.379.402.241.738.466 1.051.68a21 21 0 0 1-1.05.68c-1.043.624-2.102 1.194-2.42 1.378-.32.184-1.34.816-2.403 1.406-.41.228-.776.406-1.117.57a21 21 0 0 1-.063-1.251c-.02-1.216.018-2.415.018-2.784s-.038-1.568-.018-2.783c.008-.47.034-.874.063-1.252" style="color:#000;font-style:normal;font-variant:normal;font-weight:400;font-stretch:normal;font-size:medium;line-height:normal;font-family:sans-serif;font-variant-ligatures:normal;font-variant-position:normal;font-variant-caps:normal;font-variant-numeric:normal;font-variant-alternates:normal;font-variant-east-asian:normal;font-feature-settings:normal;font-variation-settings:normal;text-indent:0;text-align:start;text-decoration:none;text-decoration-line:none;text-decoration-style:solid;text-decoration-color:#000;letter-spacing:normal;word-spacing:normal;text-transform:none;writing-mode:lr-tb;direction:ltr;text-orientation:mixed;dominant-baseline:auto;baseline-shift:baseline;text-anchor:start;white-space:normal;shape-padding:0;shape-margin:0;inline-size:0;clip-rule:nonzero;display:inline;overflow:visible;visibility:visible;isolation:auto;mix-blend-mode:normal;color-interpolation:sRGB;color-interpolation-filters:linearRGB;solid-color:#000;solid-opacity:1;vector-effect:none;fill:#424242;fill-opacity:1;fill-rule:nonzero;stroke:none;stroke-width:2.12095;stroke-linecap:butt;stroke-linejoin:miter;stroke-miterlimit:4;stroke-dasharray:none;stroke-dashoffset:0;stroke-opacity:1;paint-order:markers stroke fill;color-rendering:auto;image-rendering:auto;shape-rendering:auto;text-rendering:auto;stop-color:#000;stop-opacity:1" transform="matrix(1.22396 0 0 1.12619 -11.222 -22.452)"/><path d="M50.534 181.693c0 .541-4.049 2.706-4.518 2.977s-4.368 2.695-4.836 2.424c-.469-.27-.319-4.86-.319-5.4 0-.542-.15-5.131.319-5.402s4.368 2.154 4.836 2.425c.469.27 4.518 2.435 4.518 2.976" style="color:#000;font-style:normal;font-variant:normal;font-weight:400;font-stretch:normal;font-size:medium;line-height:normal;font-family:sans-serif;font-variant-ligatures:normal;font-variant-position:normal;font-variant-caps:normal;font-variant-numeric:normal;font-variant-alternates:normal;font-variant-east-asian:normal;font-feature-settings:normal;font-variation-settings:normal;text-indent:0;text-align:start;text-decoration:none;text-decoration-line:none;text-decoration-style:solid;text-decoration-color:#000;letter-spacing:normal;word-spacing:normal;text-transform:none;writing-mode:lr-tb;direction:ltr;text-orientation:mixed;dominant-baseline:auto;baseline-shift:baseline;text-anchor:start;white-space:normal;shape-padding:0;shape-margin:0;inline-size:0;clip-rule:nonzero;display:inline;overflow:visible;visibility:visible;isolation:auto;mix-blend-mode:normal;color-interpolation:sRGB;color-interpolation-filters:linearRGB;solid-color:#000;solid-opacity:1;vector-effect:none;fill:#fff;fill-opacity:1;fill-rule:nonzero;stroke:none;stroke-width:2.12095;stroke-linecap:butt;stroke-linejoin:miter;stroke-miterlimit:4;stroke-dasharray:none;stroke-dashoffset:0;stroke-opacity:1;paint-order:markers stroke fill;color-rendering:auto;image-rendering:auto;shape-rendering:auto;text-rendering:auto;stop-color:#000;stop-opacity:1" transform="matrix(1.22396 0 0 1.12619 -11.222 -22.452)"/></g></g></svg>