<svg xmlns="http://www.w3.org/2000/svg" xmlns:xlink="http://www.w3.org/1999/xlink" width="110" height="110" viewBox="0 0 29.104 29.104"><defs><linearGradient xlink:href="#a" id="b" x1="69.821" x2="55.547" y1="16.022" y2="36.762" gradientTransform="matrix(1.09803 0 0 1.09815 -28.98 155.248)" gradientUnits="userSpaceOnUse"/><linearGradient id="a"><stop offset="0" style="stop-color:silver;stop-opacity:.99607843"/><stop offset="1" style="stop-color:#858585;stop-opacity:1"/></linearGradient></defs><g transform="translate(-22.869 -174.74)"><ellipse cx="37.418" cy="189.29" rx="13.383" ry="13.385" style="display:inline;fill:url(#b);fill-opacity:1;stroke:none;stroke-width:2.92119;stroke-linecap:butt;stroke-linejoin:miter;stroke-miterlimit:9.5;stroke-dasharray:none;stroke-opacity:1;font-variation-settings:normal;opacity:1;vector-effect:none;stroke-dashoffset:0;-inkscape-stroke:none;stop-color:#000;stop-opacity:1"/><circle cx="37.068" cy="189.255" r="4.643" style="display:inline;fill:#313131;fill-opacity:1;stroke:none;stroke-width:.94436;stroke-linecap:butt;stroke-linejoin:miter;stroke-miterlimit:9.5;stroke-dasharray:none;stroke-opacity:1"/><circle cx="37.068" cy="189.255" r=".78" style="display:inline;fill:#fff;fill-opacity:1;stroke:none;stroke-width:2.92119;stroke-linecap:butt;stroke-linejoin:miter;stroke-miterlimit:9.5;stroke-dasharray:none;stroke-opacity:1"/><path d="M46.757 189.437a9.34 9.34 0 0 1-5.377 8.458" style="display:inline;fill:none;fill-opacity:1;stroke:#fff;stroke-width:5.32974;stroke-linecap:butt;stroke-linejoin:miter;stroke-miterlimit:12.4;stroke-dasharray:none;stroke-opacity:.376289"/><path d="M-28.02-189.26a9.34 9.34 0 0 1-5.377 8.458" style="display:inline;fill:none;fill-opacity:1;stroke:#fff;stroke-width:5.32974;stroke-linecap:butt;stroke-linejoin:miter;stroke-miterlimit:12.4;stroke-dasharray:none;stroke-opacity:.376289" transform="scale(-1)"/><path d="M37.423 175.913a13.383 13.385 0 0 0-13.384 13.385 13.383 13.385 0 0 0 .008.215 13.383 13.385 0 0 1 13.376-13.233 13.383 13.385 0 0 1 13.376 13.17 13.383 13.385 0 0 0 .008-.152 13.383 13.385 0 0 0-13.384-13.385" style="display:inline;opacity:.187;fill:#fef2fd;fill-opacity:1;stroke:none;stroke-width:2.92119;stroke-linecap:butt;stroke-linejoin:miter;stroke-miterlimit:9.5;stroke-dasharray:none;stroke-opacity:1"/><path d="M50.793 189.054a13.383 13.385 0 0 1-13.375 13.215 13.383 13.385 0 0 1-13.374-13.146 13.383 13.385 0 0 0-.009.17 13.383 13.385 0 0 0 13.383 13.384 13.383 13.385 0 0 0 13.383-13.384 13.383 13.385 0 0 0-.008-.24" style="display:inline;fill:#000;fill-opacity:.0912281;stroke:none;stroke-width:2.92119;stroke-linecap:butt;stroke-linejoin:miter;stroke-miterlimit:9.5;stroke-dasharray:none;stroke-opacity:1"/><g style="opacity:1"><path d="M47.465 174.832c-.756 0-1.67.593-1.67 1.648v12.518c0 1.056.914 1.65 1.67 1.65h2.803c.755 0 1.668-.594 1.668-1.65V176.48c0-1.055-.913-1.648-1.668-1.648z" style="color:#000;font-style:normal;font-variant:normal;font-weight:400;font-stretch:normal;font-size:medium;line-height:normal;font-family:sans-serif;font-variant-ligatures:normal;font-variant-position:normal;font-variant-caps:normal;font-variant-numeric:normal;font-variant-alternates:normal;font-variant-east-asian:normal;font-feature-settings:normal;font-variation-settings:normal;text-indent:0;text-align:start;text-decoration:none;text-decoration-line:none;text-decoration-style:solid;text-decoration-color:#000;letter-spacing:normal;word-spacing:normal;text-transform:none;writing-mode:lr-tb;direction:ltr;text-orientation:mixed;dominant-baseline:auto;baseline-shift:baseline;text-anchor:start;white-space:normal;shape-padding:0;shape-margin:0;inline-size:0;clip-rule:nonzero;display:inline;overflow:visible;visibility:visible;isolation:auto;mix-blend-mode:normal;color-interpolation:sRGB;color-interpolation-filters:linearRGB;solid-color:#000;solid-opacity:1;vector-effect:none;fill:#454545;fill-opacity:1;fill-rule:nonzero;stroke:none;stroke-width:3.104;stroke-linecap:butt;stroke-linejoin:miter;stroke-miterlimit:4;stroke-dasharray:none;stroke-dashoffset:0;stroke-opacity:1;paint-order:markers stroke fill;color-rendering:auto;image-rendering:auto;shape-rendering:auto;text-rendering:auto;stop-color:#000;stop-opacity:1"/><path d="M47.464 176.383h2.803c.064 0 .116.043.116.097v12.519c0 .053-.052.097-.116.097h-2.803c-.064 0-.116-.044-.116-.097V176.48c0-.054.052-.097.116-.097" style="color:#000;font-style:normal;font-variant:normal;font-weight:400;font-stretch:normal;font-size:medium;line-height:normal;font-family:sans-serif;font-variant-ligatures:normal;font-variant-position:normal;font-variant-caps:normal;font-variant-numeric:normal;font-variant-alternates:normal;font-variant-east-asian:normal;font-feature-settings:normal;font-variation-settings:normal;text-indent:0;text-align:start;text-decoration:none;text-decoration-line:none;text-decoration-style:solid;text-decoration-color:#000;letter-spacing:normal;word-spacing:normal;text-transform:none;writing-mode:lr-tb;direction:ltr;text-orientation:mixed;dominant-baseline:auto;baseline-shift:baseline;text-anchor:start;white-space:normal;shape-padding:0;shape-margin:0;inline-size:0;clip-rule:nonzero;display:inline;overflow:visible;visibility:visible;isolation:auto;mix-blend-mode:normal;color-interpolation:sRGB;color-interpolation-filters:linearRGB;solid-color:#000;solid-opacity:1;vector-effect:none;fill:#fff;fill-opacity:1;fill-rule:nonzero;stroke:none;stroke-width:3.104;stroke-linecap:butt;stroke-linejoin:miter;stroke-miterlimit:4;stroke-dasharray:none;stroke-dashoffset:0;stroke-opacity:1;paint-order:markers stroke fill;color-rendering:auto;image-rendering:auto;shape-rendering:auto;text-rendering:auto;stop-color:#000;stop-opacity:1"/></g><g style="opacity:1"><path d="M39.994 174.832c-.756 0-1.668.593-1.668 1.648v12.518c0 1.056.912 1.65 1.668 1.65h2.803c.756 0 1.668-.594 1.668-1.65V176.48c0-1.055-.912-1.648-1.668-1.648z" style="color:#000;font-style:normal;font-variant:normal;font-weight:400;font-stretch:normal;font-size:medium;line-height:normal;font-family:sans-serif;font-variant-ligatures:normal;font-variant-position:normal;font-variant-caps:normal;font-variant-numeric:normal;font-variant-alternates:normal;font-variant-east-asian:normal;font-feature-settings:normal;font-variation-settings:normal;text-indent:0;text-align:start;text-decoration:none;text-decoration-line:none;text-decoration-style:solid;text-decoration-color:#000;letter-spacing:normal;word-spacing:normal;text-transform:none;writing-mode:lr-tb;direction:ltr;text-orientation:mixed;dominant-baseline:auto;baseline-shift:baseline;text-anchor:start;white-space:normal;shape-padding:0;shape-margin:0;inline-size:0;clip-rule:nonzero;display:inline;overflow:visible;visibility:visible;isolation:auto;mix-blend-mode:normal;color-interpolation:sRGB;color-interpolation-filters:linearRGB;solid-color:#000;solid-opacity:1;vector-effect:none;fill:#454545;fill-opacity:1;fill-rule:nonzero;stroke:none;stroke-width:3.104;stroke-linecap:butt;stroke-linejoin:miter;stroke-miterlimit:4;stroke-dasharray:none;stroke-dashoffset:0;stroke-opacity:1;paint-order:markers stroke fill;color-rendering:auto;image-rendering:auto;shape-rendering:auto;text-rendering:auto;stop-color:#000;stop-opacity:1"/><path d="M39.994 176.383h2.802c.065 0 .117.043.117.097v12.519c0 .053-.052.097-.117.097h-2.802c-.065 0-.117-.044-.117-.097V176.48c0-.054.052-.097.117-.097" style="color:#000;font-style:normal;font-variant:normal;font-weight:400;font-stretch:normal;font-size:medium;line-height:normal;font-family:sans-serif;font-variant-ligatures:normal;font-variant-position:normal;font-variant-caps:normal;font-variant-numeric:normal;font-variant-alternates:normal;font-variant-east-asian:normal;font-feature-settings:normal;font-variation-settings:normal;text-indent:0;text-align:start;text-decoration:none;text-decoration-line:none;text-decoration-style:solid;text-decoration-color:#000;letter-spacing:normal;word-spacing:normal;text-transform:none;writing-mode:lr-tb;direction:ltr;text-orientation:mixed;dominant-baseline:auto;baseline-shift:baseline;text-anchor:start;white-space:normal;shape-padding:0;shape-margin:0;inline-size:0;clip-rule:nonzero;display:inline;overflow:visible;visibility:visible;isolation:auto;mix-blend-mode:normal;color-interpolation:sRGB;color-interpolation-filters:linearRGB;solid-color:#000;solid-opacity:1;vector-effect:none;fill:#fff;fill-opacity:1;fill-rule:nonzero;stroke:none;stroke-width:3.104;stroke-linecap:butt;stroke-linejoin:miter;stroke-miterlimit:4;stroke-dasharray:none;stroke-dashoffset:0;stroke-opacity:1;paint-order:markers stroke fill;color-rendering:auto;image-rendering:auto;shape-rendering:auto;text-rendering:auto;stop-color:#000;stop-opacity:1"/></g></g></svg>