<?xml version="1.0" encoding="UTF-8" standalone="no"?>
<!-- Created with Inkscape (http://www.inkscape.org/) -->

<svg
   xmlns:dc="http://purl.org/dc/elements/1.1/"
   xmlns:cc="http://creativecommons.org/ns#"
   xmlns:rdf="http://www.w3.org/1999/02/22-rdf-syntax-ns#"
   xmlns:svg="http://www.w3.org/2000/svg"
   xmlns="http://www.w3.org/2000/svg"
   xmlns:sodipodi="http://sodipodi.sourceforge.net/DTD/sodipodi-0.dtd"
   xmlns:inkscape="http://www.inkscape.org/namespaces/inkscape"
   width="12"
   height="13.999995"
   viewBox="0 0 3.1750003 3.7041653"
   version="1.1"
   id="svg8"
   inkscape:version="0.92.4 5da689c313, 2019-01-14"
   sodipodi:docname="unlock.svg">
  <defs
     id="defs2" />
  <sodipodi:namedview
     id="base"
     pagecolor="#212121"
     bordercolor="#666666"
     borderopacity="1.0"
     inkscape:pageopacity="0"
     inkscape:pageshadow="2"
     inkscape:zoom="5.6"
     inkscape:cx="-6.5177774"
     inkscape:cy="16.64279"
     inkscape:document-units="mm"
     inkscape:current-layer="layer1"
     showgrid="false"
     inkscape:pagecheckerboard="false"
     fit-margin-top="0"
     fit-margin-left="0"
     fit-margin-right="0"
     fit-margin-bottom="0"
     units="px"
     inkscape:window-width="1196"
     inkscape:window-height="738"
     inkscape:window-x="27"
     inkscape:window-y="109"
     inkscape:window-maximized="0" />
  <metadata
     id="metadata5">
    <rdf:RDF>
      <cc:Work
         rdf:about="">
        <dc:format>image/svg+xml</dc:format>
        <dc:type
           rdf:resource="http://purl.org/dc/dcmitype/StillImage" />
        <dc:title></dc:title>
      </cc:Work>
    </rdf:RDF>
  </metadata>
  <g
     inkscape:label="Layer 1"
     inkscape:groupmode="layer"
     id="layer1"
     transform="translate(-44.923775,-189.81117)">
    <path
       style="fill:#fffffc;fill-opacity:1;stroke:none;stroke-width:0.0406414"
       d="m 45.180947,191.56451 c -0.142457,0 -0.257172,0.10573 -0.257172,0.23703 v 1.47686 c 0,0.1313 0.114715,0.23694 0.257172,0.23694 h 2.660745 c 0.142456,0 0.257083,-0.10564 0.257083,-0.23694 v -1.47686 c 0,-0.1313 -0.114627,-0.23703 -0.257083,-0.23703 z m 1.330328,0.45838 a 0.29825737,0.27489332 0 0 1 0.298275,0.27491 0.29825737,0.27489332 0 0 1 -0.146967,0.23653 v 0.3644 c 0,0.0893 -0.06749,0.16109 -0.151308,0.16109 -0.08381,0 -0.151308,-0.0718 -0.151308,-0.16109 v -0.3644 a 0.29825737,0.27489332 0 0 1 -0.146969,-0.23653 0.29825737,0.27489332 0 0 1 0.298277,-0.27491 z"
       id="path4950"
       inkscape:connector-curvature="0"
       inkscape:export-filename="/home/kai/Tauon/dev/assets/2x/unlock.png"
       inkscape:export-xdpi="30.510788"
       inkscape:export-ydpi="30.510788" />
    <path
       inkscape:connector-curvature="0"
       id="path4953"
       d="m 45.377366,191.77354 v -0.67568 c 0,-0.57719 0.507677,-1.0451 1.133928,-1.0451 0.62625,0 1.133927,0.46791 1.133927,1.0451"
       style="fill:none;fill-opacity:1;stroke:#f4ffff;stroke-width:0.48317087;stroke-miterlimit:4;stroke-dasharray:none;stroke-opacity:1"
       inkscape:export-filename="/home/kai/Tauon/dev/assets/2x/unlock.png"
       inkscape:export-xdpi="30.510788"
       inkscape:export-ydpi="30.510788"
       sodipodi:nodetypes="cssc" />
  </g>
</svg>
