<svg xmlns="http://www.w3.org/2000/svg" xmlns:xlink="http://www.w3.org/1999/xlink" width="110" height="110" viewBox="0 0 29.104 29.104"><defs><linearGradient xlink:href="#a" id="b" x1="72.597" x2="35.013" y1="14.935" y2="82.095" gradientTransform="matrix(1.19371 0 0 1.19384 -34.765 152.281)" gradientUnits="userSpaceOnUse"/><linearGradient id="a"><stop offset="0" style="stop-color:#f53bdc;stop-opacity:1"/><stop offset="1" style="stop-color:#1ccdfe;stop-opacity:1"/></linearGradient></defs><g transform="translate(-22.869 -174.74)"><ellipse cx="37.418" cy="189.29" rx="14.549" ry="14.551" style="display:inline;fill:url(#b);fill-opacity:1;stroke:none;stroke-width:3.17572665;stroke-linecap:butt;stroke-linejoin:miter;stroke-miterlimit:9.5;stroke-dasharray:none;stroke-opacity:1"/><ellipse cx="37.418" cy="189.29" rx="5.047" ry="5.048" style="display:inline;fill:#313131;fill-opacity:1;stroke:none;stroke-width:1.02664733;stroke-linecap:butt;stroke-linejoin:miter;stroke-miterlimit:9.5;stroke-dasharray:none;stroke-opacity:1"/><circle cx="37.418" cy="189.29" r=".848" style="display:inline;fill:#fff;fill-opacity:1;stroke:none;stroke-width:3.17572665;stroke-linecap:butt;stroke-linejoin:miter;stroke-miterlimit:9.5;stroke-dasharray:none;stroke-opacity:1"/><path d="M47.57 189.45a10.152 10.153 0 0 1-5.845 9.194" style="display:inline;fill:none;fill-opacity:1;stroke:#fff;stroke-width:5.79414845;stroke-linecap:butt;stroke-linejoin:miter;stroke-miterlimit:12.39999962;stroke-dasharray:none;stroke-opacity:.37628868"/><path d="M-27.2-189.257a10.152 10.153 0 0 1-5.846 9.195" style="display:inline;fill:none;fill-opacity:1;stroke:#fff;stroke-width:5.79414845;stroke-linecap:butt;stroke-linejoin:miter;stroke-miterlimit:12.39999962;stroke-dasharray:none;stroke-opacity:.37628868" transform="scale(-1)"/><path d="M37.423 174.747a14.55 14.55 0 0 0-14.55 14.551l.009.234a14.55 14.55 0 0 1 14.541-14.386 14.55 14.55 0 0 1 14.542 14.318l.008-.166a14.55 14.55 0 0 0-14.55-14.55z" style="display:inline;opacity:.18699999;fill:#fef2fd;fill-opacity:1;stroke:none;stroke-width:3.17572665;stroke-linecap:butt;stroke-linejoin:miter;stroke-miterlimit:9.5;stroke-dasharray:none;stroke-opacity:1"/><path d="M51.958 189.033a14.55 14.55 0 0 1-14.54 14.367 14.55 14.55 0 0 1-14.54-14.291l-.01.184a14.55 14.55 0 0 0 14.55 14.55 14.55 14.55 0 0 0 14.55-14.55z" style="display:inline;fill:#000;fill-opacity:.09122805;stroke:none;stroke-width:3.17572665;stroke-linecap:butt;stroke-linejoin:miter;stroke-miterlimit:9.5;stroke-dasharray:none;stroke-opacity:1"/></g></svg>