<svg xmlns="http://www.w3.org/2000/svg" xmlns:xlink="http://www.w3.org/1999/xlink" width="500" height="500" viewBox="0 0 132.292 132.292"><defs><linearGradient xlink:href="#a" id="b" x1="72.597" x2="35.013" y1="14.935" y2="82.095" gradientTransform="translate(-238.353 73.89)scale(5.03622)" gradientUnits="userSpaceOnUse"/><linearGradient id="a"><stop offset="0" style="stop-color:#f53bdc;stop-opacity:1"/><stop offset="1" style="stop-color:#1ccdfe;stop-opacity:1"/></linearGradient></defs><g transform="translate(0 -164.708)"><circle cx="66.186" cy="230.013" r="61.383" style="display:inline;fill:url(#b);fill-opacity:1;stroke:none;stroke-width:13.39753723;stroke-linecap:butt;stroke-linejoin:miter;stroke-miterlimit:9.5;stroke-dasharray:none;stroke-opacity:1"/><circle cx="66.186" cy="230.013" r="21.295" style="display:inline;fill:#313131;fill-opacity:1;stroke:none;stroke-width:4.3311491;stroke-linecap:butt;stroke-linejoin:miter;stroke-miterlimit:9.5;stroke-dasharray:none;stroke-opacity:1"/><circle cx="66.186" cy="230.013" r="3.578" style="display:inline;fill:#fff;fill-opacity:1;stroke:none;stroke-width:13.39753723;stroke-linecap:butt;stroke-linejoin:miter;stroke-miterlimit:9.5;stroke-dasharray:none;stroke-opacity:1"/><path d="M109.018 230.686a42.83 42.83 0 0 1-24.663 38.788" style="display:inline;fill:none;fill-opacity:1;stroke:#fff;stroke-width:24.44395447;stroke-linecap:butt;stroke-linejoin:miter;stroke-miterlimit:12.39999962;stroke-dasharray:none;stroke-opacity:.37628868"/><path d="M-23.077-229.872a42.83 42.83 0 0 1-24.663 38.788" style="display:inline;fill:none;fill-opacity:1;stroke:#fff;stroke-width:24.44395447;stroke-linecap:butt;stroke-linejoin:miter;stroke-miterlimit:12.39999962;stroke-dasharray:none;stroke-opacity:.37628868" transform="scale(-1)"/><path d="M66.206 168.663a61.383 61.383 0 0 0-61.384 61.384 61 61 0 0 0 .036.986 61.383 61.383 0 0 1 61.35-60.686 61.383 61.383 0 0 1 61.349 60.397l.035-.697a61.383 61.383 0 0 0-61.383-61.384z" style="display:inline;opacity:.18699999;fill:#fef2fd;fill-opacity:1;stroke:none;stroke-width:13.39753723;stroke-linecap:butt;stroke-linejoin:miter;stroke-miterlimit:9.5;stroke-dasharray:none;stroke-opacity:1"/><path d="M127.53 228.927a61.383 61.383 0 0 1-61.344 60.609 61.383 61.383 0 0 1-61.344-60.29 61 61 0 0 0-.039.777 61.383 61.383 0 0 0 61.383 61.383 61.383 61.383 0 0 0 61.383-61.383 61 61 0 0 0-.04-1.096" style="display:inline;fill:#000;fill-opacity:.09122807;stroke:none;stroke-width:13.39753723;stroke-linecap:butt;stroke-linejoin:miter;stroke-miterlimit:9.5;stroke-dasharray:none;stroke-opacity:1"/></g></svg>