<svg xmlns="http://www.w3.org/2000/svg" width="16" height="16"><g style="display:inline"><path d="M109.217 277.065c-4.32 0-7.838 3.519-7.838 7.84s3.517 7.838 7.838 7.838 7.84-3.517 7.84-7.838-3.52-7.84-7.84-7.84m0 1.38a6.45 6.45 0 0 1 6.46 6.46 6.447 6.447 0 0 1-6.46 6.457 6.446 6.446 0 0 1-6.457-6.457 6.447 6.447 0 0 1 6.457-6.46m-1.908 1.303a6.07 6.07 0 0 0-3.49 5.49h2.146c0-1.52.876-2.899 2.254-3.544zm1.978 3.225a1.93 1.93 0 0 0-1.931 1.932 1.93 1.93 0 0 0 1.931 1.93 1.93 1.93 0 0 0 1.93-1.93 1.93 1.93 0 0 0-1.93-1.932m3.332 1.615c0 1.522-.876 2.9-2.253 3.545l.91 1.946a6.07 6.07 0 0 0 3.49-5.49z" style="color:#000;font-style:normal;font-variant:normal;font-weight:400;font-stretch:normal;font-size:medium;line-height:normal;font-family:sans-serif;font-variant-ligatures:normal;font-variant-position:normal;font-variant-caps:normal;font-variant-numeric:normal;font-variant-alternates:normal;font-feature-settings:normal;text-indent:0;text-align:start;text-decoration:none;text-decoration-line:none;text-decoration-style:solid;text-decoration-color:#000;letter-spacing:normal;word-spacing:normal;text-transform:none;writing-mode:lr-tb;direction:ltr;text-orientation:mixed;dominant-baseline:auto;baseline-shift:baseline;text-anchor:start;white-space:normal;shape-padding:0;clip-rule:nonzero;display:inline;overflow:visible;visibility:visible;opacity:1;isolation:auto;mix-blend-mode:normal;color-interpolation:sRGB;color-interpolation-filters:linearRGB;solid-color:#000;solid-opacity:1;vector-effect:none;fill:#bebebe;fill-opacity:1;fill-rule:nonzero;stroke:none;stroke-width:1.38;stroke-linecap:butt;stroke-linejoin:miter;stroke-miterlimit:9.5;stroke-dasharray:none;stroke-dashoffset:0;stroke-opacity:1;paint-order:stroke markers fill;color-rendering:auto;image-rendering:auto;shape-rendering:auto;text-rendering:auto" transform="translate(-101 -277)"/></g></svg>