<svg xmlns="http://www.w3.org/2000/svg" width="28" height="11" viewBox="0 0 7.408 2.91"><path d="m436.151 375.934-72.381 41.79-72.381 41.789V292.355l72.381 41.79z" style="fill:#fff;fill-opacity:1;stroke:none" transform="matrix(.02583 0 0 .01741 -7.526 -5.09)"/><path d="m436.151 375.934-72.381 41.79-72.381 41.789V292.355l72.381 41.79z" style="fill:#fff;fill-opacity:1;stroke:none" transform="matrix(.02583 0 0 .01741 -3.857 -5.09)"/><path d="m436.151 375.934-72.381 41.79-72.381 41.789V292.355l72.381 41.79z" style="fill:#fff;fill-opacity:1;stroke:none" transform="matrix(.02583 0 0 .01741 -7.526 -5.09)"/><path d="m436.151 375.934-72.381 41.79-72.381 41.789V292.355l72.381 41.79z" style="fill:#fff;fill-opacity:1;stroke:none" transform="matrix(.02583 0 0 .01741 -3.857 -5.09)"/></svg>