<svg xmlns="http://www.w3.org/2000/svg" width="27" height="26.152" viewBox="0 0 7.144 6.919"><path d="M6.795.246a7.02 7.02 0 0 0-5.23 2.204c-2.89 3.026-2.89 7.931 0 10.957l3.015 3.158.553-4.584 4.566.998 1.14-6.926 5.046.727L17.629.258c-2.015-.071-4.063.71-5.602 2.322C10.582 1.067 8.688.278 6.795.246" style="fill:#fff;fill-opacity:1;fill-rule:evenodd;stroke:none;stroke-width:16.2546;stroke-linecap:butt;stroke-linejoin:miter;stroke-miterlimit:9.5;stroke-dasharray:none;stroke-dashoffset:0;stroke-opacity:1;paint-order:stroke markers fill" transform="rotate(-8.486 4.079 1.163)scale(.2619)"/><path d="m65.247 144.35-.763 2.38-1.114.001-.505 1.976-.914-.264-.138.876 1.136 1.189 2.768-2.9c.765-.8.765-2.098 0-2.898a1.9 1.9 0 0 0-.47-.361" style="fill:#fff;fill-opacity:1;fill-rule:evenodd;stroke:none;stroke-width:4.3007;stroke-linecap:butt;stroke-linejoin:miter;stroke-miterlimit:9.5;stroke-dasharray:none;stroke-dashoffset:0;stroke-opacity:1;paint-order:stroke markers fill" transform="rotate(3.391 2432.381 -913.956)scale(.98989)"/></svg>