<svg xmlns="http://www.w3.org/2000/svg" width="33.355" height="23" viewBox="0 0 8.825 6.085"><path d="M64.57 147.45a.6.6 0 0 0-.57.6v3.773a.6.6 0 0 0 .601.6h7.624a.6.6 0 0 0 .6-.6v-3.773c0-.333-.268-.6-.6-.6zm5.747.837a1.736 1.736 0 0 1 1.737 1.735 1.736 1.736 0 0 1-1.737 1.736 1.736 1.736 0 0 1-1.735-1.736 1.736 1.736 0 0 1 1.735-1.735" style="fill:#fff;fill-opacity:1;stroke:none;stroke-width:.538853;paint-order:markers stroke fill" transform="translate(-64 -146.338)"/><path d="M64.526 146.338h5.744v.705h-5.744z" style="fill:#fff;fill-opacity:1;stroke:none;stroke-width:.16367;paint-order:markers stroke fill" transform="translate(-64 -146.338)"/></svg>