<svg xmlns="http://www.w3.org/2000/svg" xml:space="preserve" width="16" height="16"><path d="M.864 160.2c-1.934 1.148-5.125 1.254-6.97.693a.561.561 0 1 0-.327 1.074c2.12.644 5.643.52 7.87-.802a.561.561 0 0 0-.573-.965M.8 158.498a.47.47 0 0 0-.643-.154c-1.612.991-4.071 1.279-5.979.7a.469.469 0 0 0-.272.895c2.18.66 4.889.34 6.74-.798a.47.47 0 0 0 .154-.643m-.734-1.634a.374.374 0 0 0-.514-.124c-1.409.861-3.182 1.056-5.27.579a.374.374 0 1 0-.167.729c2.285.522 4.246.297 5.827-.67a.374.374 0 0 0 .124-.513m-2.751 8.655a6 6 0 1 1 0-12 6 6 0 0 1 0 12" style="fill:#fff;fill-opacity:1;fill-rule:nonzero;stroke:none;stroke-width:.00716479" transform="matrix(1.33333 0 0 -1.33333 -5.033 220.651)"/><path d="M13.994 160.196c-2.257 1.532-5.98 1.673-8.134.925-.346-.12-.712.104-.816.499-.105.396.09.813.436.933 2.473.858 6.585.693 9.183-1.07.31-.21.413-.67.229-1.025-.185-.356-.587-.473-.898-.262m-.074-2.268c-.158-.293-.494-.386-.75-.205-1.882 1.321-4.751 1.704-6.977.932-.289-.1-.594.087-.681.416-.087.33.075.677.364.777 2.543.882 5.704.455 7.865-1.062.256-.18.337-.565.18-.858m-.856-2.178c-.126-.236-.395-.31-.6-.166-1.644 1.148-3.714 1.407-6.151.771-.235-.061-.469.107-.523.375-.053.268.093.536.329.597 2.667.697 4.954.397 6.8-.892.206-.143.27-.45.145-.685" style="fill:#fff;fill-opacity:1;fill-rule:nonzero;stroke:none;stroke-width:.00670275" transform="matrix(1.33333 0 0 -1.33333 -5.033 220.651)"/></svg>