<?xml version="1.0" encoding="UTF-8" standalone="no"?>
<svg
   id="svg"
   width="24"
   height="23.445"
   viewBox="0 0 24 23.444999"
   version="1.1"
   sodipodi:docname="synced.svg"
   inkscape:version="1.4.2 (ebf0e94, 2025-05-08)"
   xmlns:inkscape="http://www.inkscape.org/namespaces/inkscape"
   xmlns:sodipodi="http://sodipodi.sourceforge.net/DTD/sodipodi-0.dtd"
   xmlns="http://www.w3.org/2000/svg"
   xmlns:svg="http://www.w3.org/2000/svg">
  <defs
     id="defs1" />
  <sodipodi:namedview
     id="namedview1"
     pagecolor="#646464"
     bordercolor="#000000"
     borderopacity="0.25"
     inkscape:showpageshadow="2"
     inkscape:pageopacity="0.0"
     inkscape:pagecheckerboard="0"
     inkscape:deskcolor="#d1d1d1"
     inkscape:zoom="15.733129"
     inkscape:cx="17.16124"
     inkscape:cy="5.1483719"
     inkscape:window-width="1920"
     inkscape:window-height="1011"
     inkscape:window-x="1920"
     inkscape:window-y="32"
     inkscape:window-maximized="1"
     inkscape:current-layer="svg" />
  <g
     id="svgg"
     transform="matrix(1.5184103,0,0,1.5184361,-291.2446,-291.22032)">
    <path
       id="path0"
       d="m 198.12905,191.81239 c -2.88449,0.23461 -5.37124,2.31531 -6.09297,5.09813 -0.82934,3.19785 0.66426,6.46702 3.62626,7.93706 0.5693,0.28253 0.56956,0.28218 0.69061,0.16999 0.0501,-0.0568 0.32842,-0.32545 0.61794,-0.58562 0.28956,-0.26012 0.54526,-0.49058 0.56822,-0.51211 0.0349,-0.0327 0.0201,-0.0445 -0.0902,-0.0718 -4.02336,-0.99578 -5.44844,-5.98734 -2.54414,-8.91132 2.57249,-2.5899 6.93029,-1.89645 8.56606,1.36318 0.33512,0.66785 0.46403,1.14937 0.55647,2.07878 l 0.0172,0.173 0.71229,-4e-4 c 0.9154,-5.6e-4 0.84468,0.0234 0.82855,-0.28058 -0.20291,-3.82165 -3.60829,-6.77123 -7.45626,-6.45827 m 0.23473,1.7933 c -0.14225,0.0524 -0.3398,0.23046 -0.42114,0.37945 -0.069,0.12643 -0.10195,4.86288 -0.0355,5.10404 0.0499,0.18118 0.31431,0.46367 0.50164,0.53595 0.20666,0.0797 3.11339,0.0793 3.29138,-5.1e-4 0.61594,-0.27619 0.63942,-1.13847 0.0387,-1.42244 -0.14935,-0.0706 -0.15801,-0.0711 -1.22584,-0.0714 l -1.07542,-2.8e-4 v -1.93483 c 0,-2.15163 0.002,-2.12799 -0.19811,-2.36172 -0.20613,-0.24084 -0.57848,-0.33788 -0.87574,-0.22826 m 7.65537,5.65429 c -0.006,0.006 -0.43033,0.0131 -0.94248,0.0153 -1.3728,0.006 -1.1901,-0.0648 -2.21372,0.85669 -0.3866,0.34803 -1.44057,1.29561 -2.34215,2.10575 -0.90159,0.81013 -2.05323,1.84521 -2.55919,2.30022 -0.50596,0.45496 -1.07163,0.9626 -1.25704,1.12805 -0.40349,0.36008 -0.49809,0.51466 -0.49514,0.80901 0.005,0.45337 0.31552,0.75563 0.77652,0.75483 0.32673,-5.6e-4 0.30217,0.0163 1.35546,-0.93349 0.50289,-0.45349 0.93837,-0.83845 0.96768,-0.85546 0.0293,-0.017 0.8926,-0.12599 1.91841,-0.24224 1.66779,-0.18901 1.88116,-0.21912 2.01709,-0.28493 0.12623,-0.0611 0.41456,-0.35285 1.69962,-1.7197 1.77414,-1.88707 1.93231,-2.05523 2.3049,-2.45005 0.55404,-0.58711 0.46806,-1.26127 -0.18574,-1.45694 -0.13569,-0.0406 -0.96995,-0.0318 -1.04422,-0.027 m -1.1231,1.70477 c -0.24623,0.26276 -0.58275,0.62009 -0.85777,0.91093 -0.1565,0.16544 -0.559,0.59341 -0.89444,0.95102 l -0.60995,0.65024 -0.15682,0.0187 c -0.68578,0.0818 -0.99123,0.11265 -1.00273,0.10115 -0.014,-0.014 0.033,-0.0569 1.89793,-1.73256 l 1.1423,-1.02642 h 0.30022 0.30018 l -0.11892,0.12691"
       stroke="none"
       fill="#ffffff"
       fill-rule="evenodd"
       sodipodi:nodetypes="cccccccccccccccccccsscscccccsccccscccccsccccccsccccc"
       style="stroke-width:0.0399337" />
  </g>
</svg>
