<svg xmlns="http://www.w3.org/2000/svg" xml:space="preserve" width="38.461" height="14" viewBox="0 0 10.176 3.704"><path d="M166.932 227.41v.924h2.962v.573h-3.612v-.919l-1.563.69-1.565.692 1.565.69 1.563.69v-.918h4.438v-2.422z" style="fill:#fff;fill-opacity:1;stroke-width:.200892" transform="translate(-160.544 -227.047)"/><path d="M161.88 227.047a1.337 1.337 0 1 0 .001 2.673 1.337 1.337 0 0 0 0-2.673m0 .883a.453.453 0 1 1 .001.907.453.453 0 0 1 0-.907m0 .381a.072.072 0 1 0 .001.145.072.072 0 0 0 0-.145" style="fill:#fff;fill-opacity:1;stroke-width:.146582" transform="translate(-160.544 -227.047)"/></svg>