<svg xmlns="http://www.w3.org/2000/svg" xmlns:xlink="http://www.w3.org/1999/xlink" width="110" height="110" viewBox="0 0 29.104 29.104"><defs><linearGradient xlink:href="#a" id="b" x1="69.821" x2="55.547" y1="16.022" y2="36.762" gradientTransform="matrix(1.09803 0 0 1.09815 -28.98 155.248)" gradientUnits="userSpaceOnUse"/><linearGradient id="a"><stop offset="0" style="stop-color:silver;stop-opacity:.99607843"/><stop offset="1" style="stop-color:#858585;stop-opacity:1"/></linearGradient></defs><g transform="translate(-22.869 -174.74)"><ellipse cx="37.418" cy="189.29" rx="13.383" ry="13.385" style="display:inline;fill:url(#b);fill-opacity:1;stroke:none;stroke-width:2.92119;stroke-linecap:butt;stroke-linejoin:miter;stroke-miterlimit:9.5;stroke-dasharray:none;stroke-opacity:1"/><circle cx="37.418" cy="189.29" r="4.643" style="display:inline;fill:#313131;fill-opacity:1;stroke:none;stroke-width:.94436;stroke-linecap:butt;stroke-linejoin:miter;stroke-miterlimit:9.5;stroke-dasharray:none;stroke-opacity:1"/><circle cx="37.418" cy="189.29" r=".78" style="display:inline;fill:#fff;fill-opacity:1;stroke:none;stroke-width:2.92119;stroke-linecap:butt;stroke-linejoin:miter;stroke-miterlimit:9.5;stroke-dasharray:none;stroke-opacity:1"/><path d="M46.757 189.437a9.34 9.34 0 0 1-5.377 8.458" style="display:inline;fill:none;fill-opacity:1;stroke:#fff;stroke-width:5.32974;stroke-linecap:butt;stroke-linejoin:miter;stroke-miterlimit:12.4;stroke-dasharray:none;stroke-opacity:.376289"/><path d="M-28.02-189.26a9.34 9.34 0 0 1-5.377 8.458" style="display:inline;fill:none;fill-opacity:1;stroke:#fff;stroke-width:5.32974;stroke-linecap:butt;stroke-linejoin:miter;stroke-miterlimit:12.4;stroke-dasharray:none;stroke-opacity:.376289" transform="scale(-1)"/><path d="M37.423 175.913a13.383 13.385 0 0 0-13.384 13.385 13.383 13.385 0 0 0 .008.215 13.383 13.385 0 0 1 13.376-13.233 13.383 13.385 0 0 1 13.376 13.17 13.383 13.385 0 0 0 .008-.152 13.383 13.385 0 0 0-13.384-13.385" style="display:inline;opacity:.187;fill:#fef2fd;fill-opacity:1;stroke:none;stroke-width:2.92119;stroke-linecap:butt;stroke-linejoin:miter;stroke-miterlimit:9.5;stroke-dasharray:none;stroke-opacity:1"/><path d="M50.793 189.054a13.383 13.385 0 0 1-13.375 13.215 13.383 13.385 0 0 1-13.374-13.146 13.383 13.385 0 0 0-.009.17 13.383 13.385 0 0 0 13.383 13.384 13.383 13.385 0 0 0 13.383-13.384 13.383 13.385 0 0 0-.008-.24" style="display:inline;fill:#000;fill-opacity:.0912281;stroke:none;stroke-width:2.92119;stroke-linecap:butt;stroke-linejoin:miter;stroke-miterlimit:9.5;stroke-dasharray:none;stroke-opacity:1"/></g></svg>