<svg xmlns="http://www.w3.org/2000/svg" width="12" height="14" viewBox="0 0 3.175 3.704"><path d="M45.18 191.565c-.142 0-.256.105-.256.237v1.476c0 .132.114.237.257.237h2.66c.143 0 .258-.105.258-.237v-1.476c0-.132-.115-.237-.257-.237zm1.331.458a.298.275 0 0 1 .299.275.298.275 0 0 1-.147.236v.365c0 .089-.068.16-.152.16s-.151-.071-.151-.16v-.365a.298.275 0 0 1-.147-.236.298.275 0 0 1 .298-.275" style="fill:#fffffc;fill-opacity:1;stroke:none;stroke-width:.0406414" transform="translate(-44.924 -189.811)"/><path d="M45.377 191.774v-.676c0-.577.508-1.045 1.134-1.045.627 0 1.134.468 1.134 1.045" style="fill:none;fill-opacity:1;stroke:#f4ffff;stroke-width:.48317087;stroke-miterlimit:4;stroke-dasharray:none;stroke-opacity:1" transform="translate(-44.924 -189.811)"/></svg>