<?xml version="1.0" encoding="UTF-8" standalone="no"?>
<svg
   id="svg"
   width="24"
   height="22.843639"
   viewBox="0 0 640 609.16372"
   version="1.1"
   sodipodi:docname="unsynced.svg"
   inkscape:version="1.4.2 (ebf0e94, 2025-05-08)"
   xmlns:inkscape="http://www.inkscape.org/namespaces/inkscape"
   xmlns:sodipodi="http://sodipodi.sourceforge.net/DTD/sodipodi-0.dtd"
   xmlns="http://www.w3.org/2000/svg"
   xmlns:svg="http://www.w3.org/2000/svg">
  <defs
     id="defs1" />
  <sodipodi:namedview
     id="namedview1"
     pagecolor="#595959"
     bordercolor="#000000"
     borderopacity="0.25"
     inkscape:showpageshadow="2"
     inkscape:pageopacity="0.0"
     inkscape:pagecheckerboard="0"
     inkscape:deskcolor="#d1d1d1"
     inkscape:zoom="14.105406"
     inkscape:cx="14.74612"
     inkscape:cy="2.197739"
     inkscape:window-width="1920"
     inkscape:window-height="1011"
     inkscape:window-x="1920"
     inkscape:window-y="32"
     inkscape:window-maximized="1"
     inkscape:current-layer="svgg" />
  <g
     id="svgg"
     transform="translate(119.99981,96.652859)">
    <path
       id="path0"
       d="m -43.310927,-95.302146 c -16.00693,1.701 -39.95727,7.23898 -56.777353,13.12918 -7.01987,2.45898 -15.1759,10.86984 -17.68683,18.23868 -2.89884,8.50662 -2.99785,489.868436 -0.10225,498.073156 6.72933,19.07457 24.891723,26.66739 47.168643,19.71894 59.88071,-18.67529 139.13302,-3.22833 236.406507,46.08118 33.46002,16.95968 35.87519,16.92236 70.79924,-1.09882 91.94325,-47.44296 175.10883,-63.4158 234.21207,-44.98236 22.27693,6.94845 40.43933,-0.64437 47.16866,-19.71894 2.8956,-8.20472 2.79658,-489.566536 -0.1023,-498.073156 -2.51088,-7.36884 -10.66691,-15.7797 -17.68678,-18.23868 -79.7863,-27.943134 -176.43003,-14.20529 -286.02601,40.660059 l -14.06085,7.03935 -14.06084,-7.03935 C 103.40842,-82.822206 21.064113,-102.14185 -43.310927,-95.302146 m 69.71664,65.176849 c 39.19117,7.34287 83.366847,22.4197606 126.826737,43.286221 l 14.3676,6.89814 V 224.63187 c 0,112.51431 -0.43661,204.57119 -0.96737,204.57119 -0.53236,0 -9.34251,-3.60165 -19.57935,-8.00348 -44.9856,-19.344 -92.884637,-32.74261 -133.510617,-37.34245 -12.69095001,-1.43643 -58.94256,-0.84888 -66.32925,0.844 l -3.36142,0.77097 V 178.19847 -29.076777 l 8.8637,-1.39911 c 4.87577,-0.76934 9.68985,-1.61497 10.69779,-1.88116 4.61608,-1.21407 53.92721,0.534 62.99218,2.23175 m 422.101117,-0.42363 7.64151,1.51272 V 178.21796 385.4721 l -3.36141,-0.77097 c -7.38669,-1.69288 -53.6383,-2.28043 -66.32925,-0.844 -39.73327,4.4992 -87.93097,17.83615 -130.88932,36.21766 -9.04388,3.86945 -18.23057,7.78922 -20.41688,8.7095 l -3.97332,1.67503 V 225.65604 20.854384 l 11.9216,-5.96324 c 6.55567,-3.28027 20.61651,-9.6379204 31.24452,-14.13063042 41.7394,-17.64138058 78.22326,-28.09409058 115.16968,-32.99583058 7.67235,-1.01768 51.69059,0.24022 58.99287,1.68639"
       stroke="none"
       fill="#ffffff"
       fill-rule="evenodd"
       style="stroke-width:1.62309" />
  </g>
</svg>
